%TF.GenerationSoftware,KiCad,Pcbnew,(6.0.9-0)*%
%TF.CreationDate,2022-12-20T01:23:16-08:00*%
%TF.ProjectId,OSKI8_REGISTER,4f534b49-385f-4524-9547-49535445522e,rev?*%
%TF.SameCoordinates,Original*%
%TF.FileFunction,Drillmap*%
%TF.FilePolarity,Positive*%
%FSLAX45Y45*%
G04 Gerber Fmt 4.5, Leading zero omitted, Abs format (unit mm)*
G04 Created by KiCad (PCBNEW (6.0.9-0)) date 2022-12-20 01:23:16*
%MOMM*%
%LPD*%
G01*
G04 APERTURE LIST*
%ADD10C,0.100000*%
%ADD11C,0.200000*%
%ADD12C,0.040000*%
%ADD13C,0.080000*%
G04 APERTURE END LIST*
D10*
X13208000Y-11176000D02*
X17145000Y-11176000D01*
X17145000Y-11176000D02*
X17145000Y-5969000D01*
X17145000Y-5969000D02*
X13208000Y-5969000D01*
X13208000Y-5969000D02*
X13208000Y-11176000D01*
D11*
D12*
X14204000Y-6838000D02*
X14244000Y-6878000D01*
X14244000Y-6838000D02*
X14204000Y-6878000D01*
X14458000Y-6838000D02*
X14498000Y-6878000D01*
X14498000Y-6838000D02*
X14458000Y-6878000D01*
X14712000Y-6838000D02*
X14752000Y-6878000D01*
X14752000Y-6838000D02*
X14712000Y-6878000D01*
X14966000Y-6838000D02*
X15006000Y-6878000D01*
X15006000Y-6838000D02*
X14966000Y-6878000D01*
X15220000Y-6838000D02*
X15260000Y-6878000D01*
X15260000Y-6838000D02*
X15220000Y-6878000D01*
X15474000Y-6838000D02*
X15514000Y-6878000D01*
X15514000Y-6838000D02*
X15474000Y-6878000D01*
X15728000Y-6838000D02*
X15768000Y-6878000D01*
X15768000Y-6838000D02*
X15728000Y-6878000D01*
X15982000Y-6838000D02*
X16022000Y-6878000D01*
X16022000Y-6838000D02*
X15982000Y-6878000D01*
D13*
X13502000Y-7366000D02*
G75*
G03*
X13502000Y-7366000I-40000J0D01*
G01*
X13502000Y-7620000D02*
G75*
G03*
X13502000Y-7620000I-40000J0D01*
G01*
X13502000Y-7874000D02*
G75*
G03*
X13502000Y-7874000I-40000J0D01*
G01*
X13502000Y-8128000D02*
G75*
G03*
X13502000Y-8128000I-40000J0D01*
G01*
X13502000Y-8382000D02*
G75*
G03*
X13502000Y-8382000I-40000J0D01*
G01*
X13502000Y-8636000D02*
G75*
G03*
X13502000Y-8636000I-40000J0D01*
G01*
X13502000Y-8890000D02*
G75*
G03*
X13502000Y-8890000I-40000J0D01*
G01*
X13502000Y-9144000D02*
G75*
G03*
X13502000Y-9144000I-40000J0D01*
G01*
X13502000Y-9398000D02*
G75*
G03*
X13502000Y-9398000I-40000J0D01*
G01*
X13502000Y-9652000D02*
G75*
G03*
X13502000Y-9652000I-40000J0D01*
G01*
X14264000Y-7366000D02*
G75*
G03*
X14264000Y-7366000I-40000J0D01*
G01*
X14264000Y-7620000D02*
G75*
G03*
X14264000Y-7620000I-40000J0D01*
G01*
X14264000Y-7874000D02*
G75*
G03*
X14264000Y-7874000I-40000J0D01*
G01*
X14264000Y-8128000D02*
G75*
G03*
X14264000Y-8128000I-40000J0D01*
G01*
X14264000Y-8382000D02*
G75*
G03*
X14264000Y-8382000I-40000J0D01*
G01*
X14264000Y-8636000D02*
G75*
G03*
X14264000Y-8636000I-40000J0D01*
G01*
X14264000Y-8890000D02*
G75*
G03*
X14264000Y-8890000I-40000J0D01*
G01*
X14264000Y-9144000D02*
G75*
G03*
X14264000Y-9144000I-40000J0D01*
G01*
X14264000Y-9398000D02*
G75*
G03*
X14264000Y-9398000I-40000J0D01*
G01*
X14264000Y-9652000D02*
G75*
G03*
X14264000Y-9652000I-40000J0D01*
G01*
X16042000Y-7366000D02*
G75*
G03*
X16042000Y-7366000I-40000J0D01*
G01*
X16042000Y-7620000D02*
G75*
G03*
X16042000Y-7620000I-40000J0D01*
G01*
X16042000Y-7874000D02*
G75*
G03*
X16042000Y-7874000I-40000J0D01*
G01*
X16042000Y-8128000D02*
G75*
G03*
X16042000Y-8128000I-40000J0D01*
G01*
X16042000Y-8382000D02*
G75*
G03*
X16042000Y-8382000I-40000J0D01*
G01*
X16042000Y-8636000D02*
G75*
G03*
X16042000Y-8636000I-40000J0D01*
G01*
X16042000Y-8890000D02*
G75*
G03*
X16042000Y-8890000I-40000J0D01*
G01*
X16042000Y-9144000D02*
G75*
G03*
X16042000Y-9144000I-40000J0D01*
G01*
X16042000Y-9398000D02*
G75*
G03*
X16042000Y-9398000I-40000J0D01*
G01*
X16042000Y-9652000D02*
G75*
G03*
X16042000Y-9652000I-40000J0D01*
G01*
X16804000Y-7366000D02*
G75*
G03*
X16804000Y-7366000I-40000J0D01*
G01*
X16804000Y-7620000D02*
G75*
G03*
X16804000Y-7620000I-40000J0D01*
G01*
X16804000Y-7874000D02*
G75*
G03*
X16804000Y-7874000I-40000J0D01*
G01*
X16804000Y-8128000D02*
G75*
G03*
X16804000Y-8128000I-40000J0D01*
G01*
X16804000Y-8382000D02*
G75*
G03*
X16804000Y-8382000I-40000J0D01*
G01*
X16804000Y-8636000D02*
G75*
G03*
X16804000Y-8636000I-40000J0D01*
G01*
X16804000Y-8890000D02*
G75*
G03*
X16804000Y-8890000I-40000J0D01*
G01*
X16804000Y-9144000D02*
G75*
G03*
X16804000Y-9144000I-40000J0D01*
G01*
X16804000Y-9398000D02*
G75*
G03*
X16804000Y-9398000I-40000J0D01*
G01*
X16804000Y-9652000D02*
G75*
G03*
X16804000Y-9652000I-40000J0D01*
G01*
D10*
X13462000Y-10872000D02*
X13462000Y-10972000D01*
X13412000Y-10922000D02*
X13512000Y-10922000D01*
X13716000Y-10872000D02*
X13716000Y-10972000D01*
X13666000Y-10922000D02*
X13766000Y-10922000D01*
X13970000Y-10872000D02*
X13970000Y-10972000D01*
X13920000Y-10922000D02*
X14020000Y-10922000D01*
X14224000Y-10872000D02*
X14224000Y-10972000D01*
X14174000Y-10922000D02*
X14274000Y-10922000D01*
X14225500Y-6173000D02*
X14225500Y-6273000D01*
X14175500Y-6223000D02*
X14275500Y-6223000D01*
X14478000Y-10872000D02*
X14478000Y-10972000D01*
X14428000Y-10922000D02*
X14528000Y-10922000D01*
X14479500Y-6173000D02*
X14479500Y-6273000D01*
X14429500Y-6223000D02*
X14529500Y-6223000D01*
X14732000Y-10872000D02*
X14732000Y-10972000D01*
X14682000Y-10922000D02*
X14782000Y-10922000D01*
X14733500Y-6173000D02*
X14733500Y-6273000D01*
X14683500Y-6223000D02*
X14783500Y-6223000D01*
X14986000Y-10872000D02*
X14986000Y-10972000D01*
X14936000Y-10922000D02*
X15036000Y-10922000D01*
X14987500Y-6173000D02*
X14987500Y-6273000D01*
X14937500Y-6223000D02*
X15037500Y-6223000D01*
X15240000Y-10872000D02*
X15240000Y-10972000D01*
X15190000Y-10922000D02*
X15290000Y-10922000D01*
X15241500Y-6173000D02*
X15241500Y-6273000D01*
X15191500Y-6223000D02*
X15291500Y-6223000D01*
X15495500Y-6173000D02*
X15495500Y-6273000D01*
X15445500Y-6223000D02*
X15545500Y-6223000D01*
X15748000Y-10872000D02*
X15748000Y-10972000D01*
X15698000Y-10922000D02*
X15798000Y-10922000D01*
X15749500Y-6173000D02*
X15749500Y-6273000D01*
X15699500Y-6223000D02*
X15799500Y-6223000D01*
X16002000Y-10872000D02*
X16002000Y-10972000D01*
X15952000Y-10922000D02*
X16052000Y-10922000D01*
X16003500Y-6173000D02*
X16003500Y-6273000D01*
X15953500Y-6223000D02*
X16053500Y-6223000D01*
X16256000Y-10872000D02*
X16256000Y-10972000D01*
X16206000Y-10922000D02*
X16306000Y-10922000D01*
X16510000Y-10872000D02*
X16510000Y-10972000D01*
X16460000Y-10922000D02*
X16560000Y-10922000D01*
X16764000Y-10872000D02*
X16764000Y-10972000D01*
X16714000Y-10922000D02*
X16814000Y-10922000D01*
D11*
X13460619Y-11491476D02*
X13460619Y-11291476D01*
X13508238Y-11291476D01*
X13536809Y-11301000D01*
X13555857Y-11320048D01*
X13565381Y-11339095D01*
X13574905Y-11377190D01*
X13574905Y-11405762D01*
X13565381Y-11443857D01*
X13555857Y-11462905D01*
X13536809Y-11481952D01*
X13508238Y-11491476D01*
X13460619Y-11491476D01*
X13660619Y-11491476D02*
X13660619Y-11358143D01*
X13660619Y-11396238D02*
X13670143Y-11377190D01*
X13679667Y-11367667D01*
X13698714Y-11358143D01*
X13717762Y-11358143D01*
X13784428Y-11491476D02*
X13784428Y-11358143D01*
X13784428Y-11291476D02*
X13774905Y-11301000D01*
X13784428Y-11310524D01*
X13793952Y-11301000D01*
X13784428Y-11291476D01*
X13784428Y-11310524D01*
X13908238Y-11491476D02*
X13889190Y-11481952D01*
X13879667Y-11462905D01*
X13879667Y-11291476D01*
X14013000Y-11491476D02*
X13993952Y-11481952D01*
X13984428Y-11462905D01*
X13984428Y-11291476D01*
X14241571Y-11491476D02*
X14241571Y-11291476D01*
X14308238Y-11434333D01*
X14374905Y-11291476D01*
X14374905Y-11491476D01*
X14555857Y-11491476D02*
X14555857Y-11386714D01*
X14546333Y-11367667D01*
X14527286Y-11358143D01*
X14489190Y-11358143D01*
X14470143Y-11367667D01*
X14555857Y-11481952D02*
X14536809Y-11491476D01*
X14489190Y-11491476D01*
X14470143Y-11481952D01*
X14460619Y-11462905D01*
X14460619Y-11443857D01*
X14470143Y-11424809D01*
X14489190Y-11415286D01*
X14536809Y-11415286D01*
X14555857Y-11405762D01*
X14651095Y-11358143D02*
X14651095Y-11558143D01*
X14651095Y-11367667D02*
X14670143Y-11358143D01*
X14708238Y-11358143D01*
X14727286Y-11367667D01*
X14736809Y-11377190D01*
X14746333Y-11396238D01*
X14746333Y-11453381D01*
X14736809Y-11472428D01*
X14727286Y-11481952D01*
X14708238Y-11491476D01*
X14670143Y-11491476D01*
X14651095Y-11481952D01*
X14832048Y-11472428D02*
X14841571Y-11481952D01*
X14832048Y-11491476D01*
X14822524Y-11481952D01*
X14832048Y-11472428D01*
X14832048Y-11491476D01*
X14832048Y-11367667D02*
X14841571Y-11377190D01*
X14832048Y-11386714D01*
X14822524Y-11377190D01*
X14832048Y-11367667D01*
X14832048Y-11386714D01*
D12*
X13163000Y-11801000D02*
X13203000Y-11841000D01*
X13203000Y-11801000D02*
X13163000Y-11841000D01*
D11*
X13498714Y-11711476D02*
X13517762Y-11711476D01*
X13536809Y-11721000D01*
X13546333Y-11730524D01*
X13555857Y-11749571D01*
X13565381Y-11787667D01*
X13565381Y-11835286D01*
X13555857Y-11873381D01*
X13546333Y-11892428D01*
X13536809Y-11901952D01*
X13517762Y-11911476D01*
X13498714Y-11911476D01*
X13479667Y-11901952D01*
X13470143Y-11892428D01*
X13460619Y-11873381D01*
X13451095Y-11835286D01*
X13451095Y-11787667D01*
X13460619Y-11749571D01*
X13470143Y-11730524D01*
X13479667Y-11721000D01*
X13498714Y-11711476D01*
X13651095Y-11892428D02*
X13660619Y-11901952D01*
X13651095Y-11911476D01*
X13641571Y-11901952D01*
X13651095Y-11892428D01*
X13651095Y-11911476D01*
X13832048Y-11778143D02*
X13832048Y-11911476D01*
X13784428Y-11701952D02*
X13736809Y-11844809D01*
X13860619Y-11844809D01*
X13974905Y-11711476D02*
X13993952Y-11711476D01*
X14013000Y-11721000D01*
X14022524Y-11730524D01*
X14032048Y-11749571D01*
X14041571Y-11787667D01*
X14041571Y-11835286D01*
X14032048Y-11873381D01*
X14022524Y-11892428D01*
X14013000Y-11901952D01*
X13993952Y-11911476D01*
X13974905Y-11911476D01*
X13955857Y-11901952D01*
X13946333Y-11892428D01*
X13936809Y-11873381D01*
X13927286Y-11835286D01*
X13927286Y-11787667D01*
X13936809Y-11749571D01*
X13946333Y-11730524D01*
X13955857Y-11721000D01*
X13974905Y-11711476D01*
X14165381Y-11711476D02*
X14184428Y-11711476D01*
X14203476Y-11721000D01*
X14213000Y-11730524D01*
X14222524Y-11749571D01*
X14232048Y-11787667D01*
X14232048Y-11835286D01*
X14222524Y-11873381D01*
X14213000Y-11892428D01*
X14203476Y-11901952D01*
X14184428Y-11911476D01*
X14165381Y-11911476D01*
X14146333Y-11901952D01*
X14136809Y-11892428D01*
X14127286Y-11873381D01*
X14117762Y-11835286D01*
X14117762Y-11787667D01*
X14127286Y-11749571D01*
X14136809Y-11730524D01*
X14146333Y-11721000D01*
X14165381Y-11711476D01*
X14317762Y-11911476D02*
X14317762Y-11778143D01*
X14317762Y-11797190D02*
X14327286Y-11787667D01*
X14346333Y-11778143D01*
X14374905Y-11778143D01*
X14393952Y-11787667D01*
X14403476Y-11806714D01*
X14403476Y-11911476D01*
X14403476Y-11806714D02*
X14413000Y-11787667D01*
X14432048Y-11778143D01*
X14460619Y-11778143D01*
X14479667Y-11787667D01*
X14489190Y-11806714D01*
X14489190Y-11911476D01*
X14584428Y-11911476D02*
X14584428Y-11778143D01*
X14584428Y-11797190D02*
X14593952Y-11787667D01*
X14613000Y-11778143D01*
X14641571Y-11778143D01*
X14660619Y-11787667D01*
X14670143Y-11806714D01*
X14670143Y-11911476D01*
X14670143Y-11806714D02*
X14679667Y-11787667D01*
X14698714Y-11778143D01*
X14727286Y-11778143D01*
X14746333Y-11787667D01*
X14755857Y-11806714D01*
X14755857Y-11911476D01*
X15146333Y-11701952D02*
X14974905Y-11959095D01*
X15403476Y-11711476D02*
X15422524Y-11711476D01*
X15441571Y-11721000D01*
X15451095Y-11730524D01*
X15460619Y-11749571D01*
X15470143Y-11787667D01*
X15470143Y-11835286D01*
X15460619Y-11873381D01*
X15451095Y-11892428D01*
X15441571Y-11901952D01*
X15422524Y-11911476D01*
X15403476Y-11911476D01*
X15384428Y-11901952D01*
X15374905Y-11892428D01*
X15365381Y-11873381D01*
X15355857Y-11835286D01*
X15355857Y-11787667D01*
X15365381Y-11749571D01*
X15374905Y-11730524D01*
X15384428Y-11721000D01*
X15403476Y-11711476D01*
X15555857Y-11892428D02*
X15565381Y-11901952D01*
X15555857Y-11911476D01*
X15546333Y-11901952D01*
X15555857Y-11892428D01*
X15555857Y-11911476D01*
X15689190Y-11711476D02*
X15708238Y-11711476D01*
X15727286Y-11721000D01*
X15736809Y-11730524D01*
X15746333Y-11749571D01*
X15755857Y-11787667D01*
X15755857Y-11835286D01*
X15746333Y-11873381D01*
X15736809Y-11892428D01*
X15727286Y-11901952D01*
X15708238Y-11911476D01*
X15689190Y-11911476D01*
X15670143Y-11901952D01*
X15660619Y-11892428D01*
X15651095Y-11873381D01*
X15641571Y-11835286D01*
X15641571Y-11787667D01*
X15651095Y-11749571D01*
X15660619Y-11730524D01*
X15670143Y-11721000D01*
X15689190Y-11711476D01*
X15946333Y-11911476D02*
X15832048Y-11911476D01*
X15889190Y-11911476D02*
X15889190Y-11711476D01*
X15870143Y-11740048D01*
X15851095Y-11759095D01*
X15832048Y-11768619D01*
X16127286Y-11711476D02*
X16032048Y-11711476D01*
X16022524Y-11806714D01*
X16032048Y-11797190D01*
X16051095Y-11787667D01*
X16098714Y-11787667D01*
X16117762Y-11797190D01*
X16127286Y-11806714D01*
X16136809Y-11825762D01*
X16136809Y-11873381D01*
X16127286Y-11892428D01*
X16117762Y-11901952D01*
X16098714Y-11911476D01*
X16051095Y-11911476D01*
X16032048Y-11901952D01*
X16022524Y-11892428D01*
X16203476Y-11711476D02*
X16336809Y-11711476D01*
X16251095Y-11911476D01*
X16403476Y-11711476D02*
X16403476Y-11749571D01*
X16479667Y-11711476D02*
X16479667Y-11749571D01*
X16774905Y-11987667D02*
X16765381Y-11978143D01*
X16746333Y-11949571D01*
X16736809Y-11930524D01*
X16727286Y-11901952D01*
X16717762Y-11854333D01*
X16717762Y-11816238D01*
X16727286Y-11768619D01*
X16736809Y-11740048D01*
X16746333Y-11721000D01*
X16765381Y-11692428D01*
X16774905Y-11682905D01*
X16879667Y-11797190D02*
X16860619Y-11787667D01*
X16851095Y-11778143D01*
X16841571Y-11759095D01*
X16841571Y-11749571D01*
X16851095Y-11730524D01*
X16860619Y-11721000D01*
X16879667Y-11711476D01*
X16917762Y-11711476D01*
X16936810Y-11721000D01*
X16946333Y-11730524D01*
X16955857Y-11749571D01*
X16955857Y-11759095D01*
X16946333Y-11778143D01*
X16936810Y-11787667D01*
X16917762Y-11797190D01*
X16879667Y-11797190D01*
X16860619Y-11806714D01*
X16851095Y-11816238D01*
X16841571Y-11835286D01*
X16841571Y-11873381D01*
X16851095Y-11892428D01*
X16860619Y-11901952D01*
X16879667Y-11911476D01*
X16917762Y-11911476D01*
X16936810Y-11901952D01*
X16946333Y-11892428D01*
X16955857Y-11873381D01*
X16955857Y-11835286D01*
X16946333Y-11816238D01*
X16936810Y-11806714D01*
X16917762Y-11797190D01*
X17193952Y-11911476D02*
X17193952Y-11711476D01*
X17279667Y-11911476D02*
X17279667Y-11806714D01*
X17270143Y-11787667D01*
X17251095Y-11778143D01*
X17222524Y-11778143D01*
X17203476Y-11787667D01*
X17193952Y-11797190D01*
X17403476Y-11911476D02*
X17384429Y-11901952D01*
X17374905Y-11892428D01*
X17365381Y-11873381D01*
X17365381Y-11816238D01*
X17374905Y-11797190D01*
X17384429Y-11787667D01*
X17403476Y-11778143D01*
X17432048Y-11778143D01*
X17451095Y-11787667D01*
X17460619Y-11797190D01*
X17470143Y-11816238D01*
X17470143Y-11873381D01*
X17460619Y-11892428D01*
X17451095Y-11901952D01*
X17432048Y-11911476D01*
X17403476Y-11911476D01*
X17584429Y-11911476D02*
X17565381Y-11901952D01*
X17555857Y-11882905D01*
X17555857Y-11711476D01*
X17736810Y-11901952D02*
X17717762Y-11911476D01*
X17679667Y-11911476D01*
X17660619Y-11901952D01*
X17651095Y-11882905D01*
X17651095Y-11806714D01*
X17660619Y-11787667D01*
X17679667Y-11778143D01*
X17717762Y-11778143D01*
X17736810Y-11787667D01*
X17746333Y-11806714D01*
X17746333Y-11825762D01*
X17651095Y-11844809D01*
X17822524Y-11901952D02*
X17841571Y-11911476D01*
X17879667Y-11911476D01*
X17898714Y-11901952D01*
X17908238Y-11882905D01*
X17908238Y-11873381D01*
X17898714Y-11854333D01*
X17879667Y-11844809D01*
X17851095Y-11844809D01*
X17832048Y-11835286D01*
X17822524Y-11816238D01*
X17822524Y-11806714D01*
X17832048Y-11787667D01*
X17851095Y-11778143D01*
X17879667Y-11778143D01*
X17898714Y-11787667D01*
X17974905Y-11987667D02*
X17984429Y-11978143D01*
X18003476Y-11949571D01*
X18013000Y-11930524D01*
X18022524Y-11901952D01*
X18032048Y-11854333D01*
X18032048Y-11816238D01*
X18022524Y-11768619D01*
X18013000Y-11740048D01*
X18003476Y-11721000D01*
X17984429Y-11692428D01*
X17974905Y-11682905D01*
D13*
X13203000Y-12085000D02*
G75*
G03*
X13203000Y-12085000I-40000J0D01*
G01*
D11*
X13498714Y-11975476D02*
X13517762Y-11975476D01*
X13536809Y-11985000D01*
X13546333Y-11994524D01*
X13555857Y-12013571D01*
X13565381Y-12051667D01*
X13565381Y-12099286D01*
X13555857Y-12137381D01*
X13546333Y-12156428D01*
X13536809Y-12165952D01*
X13517762Y-12175476D01*
X13498714Y-12175476D01*
X13479667Y-12165952D01*
X13470143Y-12156428D01*
X13460619Y-12137381D01*
X13451095Y-12099286D01*
X13451095Y-12051667D01*
X13460619Y-12013571D01*
X13470143Y-11994524D01*
X13479667Y-11985000D01*
X13498714Y-11975476D01*
X13651095Y-12156428D02*
X13660619Y-12165952D01*
X13651095Y-12175476D01*
X13641571Y-12165952D01*
X13651095Y-12156428D01*
X13651095Y-12175476D01*
X13774905Y-12061190D02*
X13755857Y-12051667D01*
X13746333Y-12042143D01*
X13736809Y-12023095D01*
X13736809Y-12013571D01*
X13746333Y-11994524D01*
X13755857Y-11985000D01*
X13774905Y-11975476D01*
X13813000Y-11975476D01*
X13832048Y-11985000D01*
X13841571Y-11994524D01*
X13851095Y-12013571D01*
X13851095Y-12023095D01*
X13841571Y-12042143D01*
X13832048Y-12051667D01*
X13813000Y-12061190D01*
X13774905Y-12061190D01*
X13755857Y-12070714D01*
X13746333Y-12080238D01*
X13736809Y-12099286D01*
X13736809Y-12137381D01*
X13746333Y-12156428D01*
X13755857Y-12165952D01*
X13774905Y-12175476D01*
X13813000Y-12175476D01*
X13832048Y-12165952D01*
X13841571Y-12156428D01*
X13851095Y-12137381D01*
X13851095Y-12099286D01*
X13841571Y-12080238D01*
X13832048Y-12070714D01*
X13813000Y-12061190D01*
X13974905Y-11975476D02*
X13993952Y-11975476D01*
X14013000Y-11985000D01*
X14022524Y-11994524D01*
X14032048Y-12013571D01*
X14041571Y-12051667D01*
X14041571Y-12099286D01*
X14032048Y-12137381D01*
X14022524Y-12156428D01*
X14013000Y-12165952D01*
X13993952Y-12175476D01*
X13974905Y-12175476D01*
X13955857Y-12165952D01*
X13946333Y-12156428D01*
X13936809Y-12137381D01*
X13927286Y-12099286D01*
X13927286Y-12051667D01*
X13936809Y-12013571D01*
X13946333Y-11994524D01*
X13955857Y-11985000D01*
X13974905Y-11975476D01*
X14165381Y-11975476D02*
X14184428Y-11975476D01*
X14203476Y-11985000D01*
X14213000Y-11994524D01*
X14222524Y-12013571D01*
X14232048Y-12051667D01*
X14232048Y-12099286D01*
X14222524Y-12137381D01*
X14213000Y-12156428D01*
X14203476Y-12165952D01*
X14184428Y-12175476D01*
X14165381Y-12175476D01*
X14146333Y-12165952D01*
X14136809Y-12156428D01*
X14127286Y-12137381D01*
X14117762Y-12099286D01*
X14117762Y-12051667D01*
X14127286Y-12013571D01*
X14136809Y-11994524D01*
X14146333Y-11985000D01*
X14165381Y-11975476D01*
X14317762Y-12175476D02*
X14317762Y-12042143D01*
X14317762Y-12061190D02*
X14327286Y-12051667D01*
X14346333Y-12042143D01*
X14374905Y-12042143D01*
X14393952Y-12051667D01*
X14403476Y-12070714D01*
X14403476Y-12175476D01*
X14403476Y-12070714D02*
X14413000Y-12051667D01*
X14432048Y-12042143D01*
X14460619Y-12042143D01*
X14479667Y-12051667D01*
X14489190Y-12070714D01*
X14489190Y-12175476D01*
X14584428Y-12175476D02*
X14584428Y-12042143D01*
X14584428Y-12061190D02*
X14593952Y-12051667D01*
X14613000Y-12042143D01*
X14641571Y-12042143D01*
X14660619Y-12051667D01*
X14670143Y-12070714D01*
X14670143Y-12175476D01*
X14670143Y-12070714D02*
X14679667Y-12051667D01*
X14698714Y-12042143D01*
X14727286Y-12042143D01*
X14746333Y-12051667D01*
X14755857Y-12070714D01*
X14755857Y-12175476D01*
X15146333Y-11965952D02*
X14974905Y-12223095D01*
X15403476Y-11975476D02*
X15422524Y-11975476D01*
X15441571Y-11985000D01*
X15451095Y-11994524D01*
X15460619Y-12013571D01*
X15470143Y-12051667D01*
X15470143Y-12099286D01*
X15460619Y-12137381D01*
X15451095Y-12156428D01*
X15441571Y-12165952D01*
X15422524Y-12175476D01*
X15403476Y-12175476D01*
X15384428Y-12165952D01*
X15374905Y-12156428D01*
X15365381Y-12137381D01*
X15355857Y-12099286D01*
X15355857Y-12051667D01*
X15365381Y-12013571D01*
X15374905Y-11994524D01*
X15384428Y-11985000D01*
X15403476Y-11975476D01*
X15555857Y-12156428D02*
X15565381Y-12165952D01*
X15555857Y-12175476D01*
X15546333Y-12165952D01*
X15555857Y-12156428D01*
X15555857Y-12175476D01*
X15689190Y-11975476D02*
X15708238Y-11975476D01*
X15727286Y-11985000D01*
X15736809Y-11994524D01*
X15746333Y-12013571D01*
X15755857Y-12051667D01*
X15755857Y-12099286D01*
X15746333Y-12137381D01*
X15736809Y-12156428D01*
X15727286Y-12165952D01*
X15708238Y-12175476D01*
X15689190Y-12175476D01*
X15670143Y-12165952D01*
X15660619Y-12156428D01*
X15651095Y-12137381D01*
X15641571Y-12099286D01*
X15641571Y-12051667D01*
X15651095Y-12013571D01*
X15660619Y-11994524D01*
X15670143Y-11985000D01*
X15689190Y-11975476D01*
X15822524Y-11975476D02*
X15946333Y-11975476D01*
X15879667Y-12051667D01*
X15908238Y-12051667D01*
X15927286Y-12061190D01*
X15936809Y-12070714D01*
X15946333Y-12089762D01*
X15946333Y-12137381D01*
X15936809Y-12156428D01*
X15927286Y-12165952D01*
X15908238Y-12175476D01*
X15851095Y-12175476D01*
X15832048Y-12165952D01*
X15822524Y-12156428D01*
X16136809Y-12175476D02*
X16022524Y-12175476D01*
X16079667Y-12175476D02*
X16079667Y-11975476D01*
X16060619Y-12004048D01*
X16041571Y-12023095D01*
X16022524Y-12032619D01*
X16317762Y-11975476D02*
X16222524Y-11975476D01*
X16213000Y-12070714D01*
X16222524Y-12061190D01*
X16241571Y-12051667D01*
X16289190Y-12051667D01*
X16308238Y-12061190D01*
X16317762Y-12070714D01*
X16327286Y-12089762D01*
X16327286Y-12137381D01*
X16317762Y-12156428D01*
X16308238Y-12165952D01*
X16289190Y-12175476D01*
X16241571Y-12175476D01*
X16222524Y-12165952D01*
X16213000Y-12156428D01*
X16403476Y-11975476D02*
X16403476Y-12013571D01*
X16479667Y-11975476D02*
X16479667Y-12013571D01*
X16774905Y-12251667D02*
X16765381Y-12242143D01*
X16746333Y-12213571D01*
X16736809Y-12194524D01*
X16727286Y-12165952D01*
X16717762Y-12118333D01*
X16717762Y-12080238D01*
X16727286Y-12032619D01*
X16736809Y-12004048D01*
X16746333Y-11985000D01*
X16765381Y-11956428D01*
X16774905Y-11946905D01*
X16936810Y-12042143D02*
X16936810Y-12175476D01*
X16889190Y-11965952D02*
X16841571Y-12108809D01*
X16965381Y-12108809D01*
X17079667Y-11975476D02*
X17098714Y-11975476D01*
X17117762Y-11985000D01*
X17127286Y-11994524D01*
X17136810Y-12013571D01*
X17146333Y-12051667D01*
X17146333Y-12099286D01*
X17136810Y-12137381D01*
X17127286Y-12156428D01*
X17117762Y-12165952D01*
X17098714Y-12175476D01*
X17079667Y-12175476D01*
X17060619Y-12165952D01*
X17051095Y-12156428D01*
X17041571Y-12137381D01*
X17032048Y-12099286D01*
X17032048Y-12051667D01*
X17041571Y-12013571D01*
X17051095Y-11994524D01*
X17060619Y-11985000D01*
X17079667Y-11975476D01*
X17384429Y-12175476D02*
X17384429Y-11975476D01*
X17470143Y-12175476D02*
X17470143Y-12070714D01*
X17460619Y-12051667D01*
X17441571Y-12042143D01*
X17413000Y-12042143D01*
X17393952Y-12051667D01*
X17384429Y-12061190D01*
X17593952Y-12175476D02*
X17574905Y-12165952D01*
X17565381Y-12156428D01*
X17555857Y-12137381D01*
X17555857Y-12080238D01*
X17565381Y-12061190D01*
X17574905Y-12051667D01*
X17593952Y-12042143D01*
X17622524Y-12042143D01*
X17641571Y-12051667D01*
X17651095Y-12061190D01*
X17660619Y-12080238D01*
X17660619Y-12137381D01*
X17651095Y-12156428D01*
X17641571Y-12165952D01*
X17622524Y-12175476D01*
X17593952Y-12175476D01*
X17774905Y-12175476D02*
X17755857Y-12165952D01*
X17746333Y-12146905D01*
X17746333Y-11975476D01*
X17927286Y-12165952D02*
X17908238Y-12175476D01*
X17870143Y-12175476D01*
X17851095Y-12165952D01*
X17841571Y-12146905D01*
X17841571Y-12070714D01*
X17851095Y-12051667D01*
X17870143Y-12042143D01*
X17908238Y-12042143D01*
X17927286Y-12051667D01*
X17936810Y-12070714D01*
X17936810Y-12089762D01*
X17841571Y-12108809D01*
X18013000Y-12165952D02*
X18032048Y-12175476D01*
X18070143Y-12175476D01*
X18089190Y-12165952D01*
X18098714Y-12146905D01*
X18098714Y-12137381D01*
X18089190Y-12118333D01*
X18070143Y-12108809D01*
X18041571Y-12108809D01*
X18022524Y-12099286D01*
X18013000Y-12080238D01*
X18013000Y-12070714D01*
X18022524Y-12051667D01*
X18041571Y-12042143D01*
X18070143Y-12042143D01*
X18089190Y-12051667D01*
X18165381Y-12251667D02*
X18174905Y-12242143D01*
X18193952Y-12213571D01*
X18203476Y-12194524D01*
X18213000Y-12165952D01*
X18222524Y-12118333D01*
X18222524Y-12080238D01*
X18213000Y-12032619D01*
X18203476Y-12004048D01*
X18193952Y-11985000D01*
X18174905Y-11956428D01*
X18165381Y-11946905D01*
D10*
X13153000Y-12299000D02*
X13153000Y-12399000D01*
X13103000Y-12349000D02*
X13203000Y-12349000D01*
D11*
X13565381Y-12439476D02*
X13451095Y-12439476D01*
X13508238Y-12439476D02*
X13508238Y-12239476D01*
X13489190Y-12268048D01*
X13470143Y-12287095D01*
X13451095Y-12296619D01*
X13651095Y-12420428D02*
X13660619Y-12429952D01*
X13651095Y-12439476D01*
X13641571Y-12429952D01*
X13651095Y-12420428D01*
X13651095Y-12439476D01*
X13784428Y-12239476D02*
X13803476Y-12239476D01*
X13822524Y-12249000D01*
X13832048Y-12258524D01*
X13841571Y-12277571D01*
X13851095Y-12315667D01*
X13851095Y-12363286D01*
X13841571Y-12401381D01*
X13832048Y-12420428D01*
X13822524Y-12429952D01*
X13803476Y-12439476D01*
X13784428Y-12439476D01*
X13765381Y-12429952D01*
X13755857Y-12420428D01*
X13746333Y-12401381D01*
X13736809Y-12363286D01*
X13736809Y-12315667D01*
X13746333Y-12277571D01*
X13755857Y-12258524D01*
X13765381Y-12249000D01*
X13784428Y-12239476D01*
X13974905Y-12239476D02*
X13993952Y-12239476D01*
X14013000Y-12249000D01*
X14022524Y-12258524D01*
X14032048Y-12277571D01*
X14041571Y-12315667D01*
X14041571Y-12363286D01*
X14032048Y-12401381D01*
X14022524Y-12420428D01*
X14013000Y-12429952D01*
X13993952Y-12439476D01*
X13974905Y-12439476D01*
X13955857Y-12429952D01*
X13946333Y-12420428D01*
X13936809Y-12401381D01*
X13927286Y-12363286D01*
X13927286Y-12315667D01*
X13936809Y-12277571D01*
X13946333Y-12258524D01*
X13955857Y-12249000D01*
X13974905Y-12239476D01*
X14165381Y-12239476D02*
X14184428Y-12239476D01*
X14203476Y-12249000D01*
X14213000Y-12258524D01*
X14222524Y-12277571D01*
X14232048Y-12315667D01*
X14232048Y-12363286D01*
X14222524Y-12401381D01*
X14213000Y-12420428D01*
X14203476Y-12429952D01*
X14184428Y-12439476D01*
X14165381Y-12439476D01*
X14146333Y-12429952D01*
X14136809Y-12420428D01*
X14127286Y-12401381D01*
X14117762Y-12363286D01*
X14117762Y-12315667D01*
X14127286Y-12277571D01*
X14136809Y-12258524D01*
X14146333Y-12249000D01*
X14165381Y-12239476D01*
X14317762Y-12439476D02*
X14317762Y-12306143D01*
X14317762Y-12325190D02*
X14327286Y-12315667D01*
X14346333Y-12306143D01*
X14374905Y-12306143D01*
X14393952Y-12315667D01*
X14403476Y-12334714D01*
X14403476Y-12439476D01*
X14403476Y-12334714D02*
X14413000Y-12315667D01*
X14432048Y-12306143D01*
X14460619Y-12306143D01*
X14479667Y-12315667D01*
X14489190Y-12334714D01*
X14489190Y-12439476D01*
X14584428Y-12439476D02*
X14584428Y-12306143D01*
X14584428Y-12325190D02*
X14593952Y-12315667D01*
X14613000Y-12306143D01*
X14641571Y-12306143D01*
X14660619Y-12315667D01*
X14670143Y-12334714D01*
X14670143Y-12439476D01*
X14670143Y-12334714D02*
X14679667Y-12315667D01*
X14698714Y-12306143D01*
X14727286Y-12306143D01*
X14746333Y-12315667D01*
X14755857Y-12334714D01*
X14755857Y-12439476D01*
X15146333Y-12229952D02*
X14974905Y-12487095D01*
X15403476Y-12239476D02*
X15422524Y-12239476D01*
X15441571Y-12249000D01*
X15451095Y-12258524D01*
X15460619Y-12277571D01*
X15470143Y-12315667D01*
X15470143Y-12363286D01*
X15460619Y-12401381D01*
X15451095Y-12420428D01*
X15441571Y-12429952D01*
X15422524Y-12439476D01*
X15403476Y-12439476D01*
X15384428Y-12429952D01*
X15374905Y-12420428D01*
X15365381Y-12401381D01*
X15355857Y-12363286D01*
X15355857Y-12315667D01*
X15365381Y-12277571D01*
X15374905Y-12258524D01*
X15384428Y-12249000D01*
X15403476Y-12239476D01*
X15555857Y-12420428D02*
X15565381Y-12429952D01*
X15555857Y-12439476D01*
X15546333Y-12429952D01*
X15555857Y-12420428D01*
X15555857Y-12439476D01*
X15689190Y-12239476D02*
X15708238Y-12239476D01*
X15727286Y-12249000D01*
X15736809Y-12258524D01*
X15746333Y-12277571D01*
X15755857Y-12315667D01*
X15755857Y-12363286D01*
X15746333Y-12401381D01*
X15736809Y-12420428D01*
X15727286Y-12429952D01*
X15708238Y-12439476D01*
X15689190Y-12439476D01*
X15670143Y-12429952D01*
X15660619Y-12420428D01*
X15651095Y-12401381D01*
X15641571Y-12363286D01*
X15641571Y-12315667D01*
X15651095Y-12277571D01*
X15660619Y-12258524D01*
X15670143Y-12249000D01*
X15689190Y-12239476D01*
X15822524Y-12239476D02*
X15946333Y-12239476D01*
X15879667Y-12315667D01*
X15908238Y-12315667D01*
X15927286Y-12325190D01*
X15936809Y-12334714D01*
X15946333Y-12353762D01*
X15946333Y-12401381D01*
X15936809Y-12420428D01*
X15927286Y-12429952D01*
X15908238Y-12439476D01*
X15851095Y-12439476D01*
X15832048Y-12429952D01*
X15822524Y-12420428D01*
X16041571Y-12439476D02*
X16079667Y-12439476D01*
X16098714Y-12429952D01*
X16108238Y-12420428D01*
X16127286Y-12391857D01*
X16136809Y-12353762D01*
X16136809Y-12277571D01*
X16127286Y-12258524D01*
X16117762Y-12249000D01*
X16098714Y-12239476D01*
X16060619Y-12239476D01*
X16041571Y-12249000D01*
X16032048Y-12258524D01*
X16022524Y-12277571D01*
X16022524Y-12325190D01*
X16032048Y-12344238D01*
X16041571Y-12353762D01*
X16060619Y-12363286D01*
X16098714Y-12363286D01*
X16117762Y-12353762D01*
X16127286Y-12344238D01*
X16136809Y-12325190D01*
X16308238Y-12306143D02*
X16308238Y-12439476D01*
X16260619Y-12229952D02*
X16213000Y-12372809D01*
X16336809Y-12372809D01*
X16403476Y-12239476D02*
X16403476Y-12277571D01*
X16479667Y-12239476D02*
X16479667Y-12277571D01*
X16774905Y-12515667D02*
X16765381Y-12506143D01*
X16746333Y-12477571D01*
X16736809Y-12458524D01*
X16727286Y-12429952D01*
X16717762Y-12382333D01*
X16717762Y-12344238D01*
X16727286Y-12296619D01*
X16736809Y-12268048D01*
X16746333Y-12249000D01*
X16765381Y-12220428D01*
X16774905Y-12210905D01*
X16841571Y-12258524D02*
X16851095Y-12249000D01*
X16870143Y-12239476D01*
X16917762Y-12239476D01*
X16936810Y-12249000D01*
X16946333Y-12258524D01*
X16955857Y-12277571D01*
X16955857Y-12296619D01*
X16946333Y-12325190D01*
X16832048Y-12439476D01*
X16955857Y-12439476D01*
X17146333Y-12439476D02*
X17032048Y-12439476D01*
X17089190Y-12439476D02*
X17089190Y-12239476D01*
X17070143Y-12268048D01*
X17051095Y-12287095D01*
X17032048Y-12296619D01*
X17384429Y-12439476D02*
X17384429Y-12239476D01*
X17470143Y-12439476D02*
X17470143Y-12334714D01*
X17460619Y-12315667D01*
X17441571Y-12306143D01*
X17413000Y-12306143D01*
X17393952Y-12315667D01*
X17384429Y-12325190D01*
X17593952Y-12439476D02*
X17574905Y-12429952D01*
X17565381Y-12420428D01*
X17555857Y-12401381D01*
X17555857Y-12344238D01*
X17565381Y-12325190D01*
X17574905Y-12315667D01*
X17593952Y-12306143D01*
X17622524Y-12306143D01*
X17641571Y-12315667D01*
X17651095Y-12325190D01*
X17660619Y-12344238D01*
X17660619Y-12401381D01*
X17651095Y-12420428D01*
X17641571Y-12429952D01*
X17622524Y-12439476D01*
X17593952Y-12439476D01*
X17774905Y-12439476D02*
X17755857Y-12429952D01*
X17746333Y-12410905D01*
X17746333Y-12239476D01*
X17927286Y-12429952D02*
X17908238Y-12439476D01*
X17870143Y-12439476D01*
X17851095Y-12429952D01*
X17841571Y-12410905D01*
X17841571Y-12334714D01*
X17851095Y-12315667D01*
X17870143Y-12306143D01*
X17908238Y-12306143D01*
X17927286Y-12315667D01*
X17936810Y-12334714D01*
X17936810Y-12353762D01*
X17841571Y-12372809D01*
X18013000Y-12429952D02*
X18032048Y-12439476D01*
X18070143Y-12439476D01*
X18089190Y-12429952D01*
X18098714Y-12410905D01*
X18098714Y-12401381D01*
X18089190Y-12382333D01*
X18070143Y-12372809D01*
X18041571Y-12372809D01*
X18022524Y-12363286D01*
X18013000Y-12344238D01*
X18013000Y-12334714D01*
X18022524Y-12315667D01*
X18041571Y-12306143D01*
X18070143Y-12306143D01*
X18089190Y-12315667D01*
X18165381Y-12515667D02*
X18174905Y-12506143D01*
X18193952Y-12477571D01*
X18203476Y-12458524D01*
X18213000Y-12429952D01*
X18222524Y-12382333D01*
X18222524Y-12344238D01*
X18213000Y-12296619D01*
X18203476Y-12268048D01*
X18193952Y-12249000D01*
X18174905Y-12220428D01*
X18165381Y-12210905D01*
M02*
