%TF.GenerationSoftware,KiCad,Pcbnew,(6.0.9-0)*%
%TF.CreationDate,2022-12-20T01:23:05-08:00*%
%TF.ProjectId,OSKI8_REGISTER,4f534b49-385f-4524-9547-49535445522e,rev?*%
%TF.SameCoordinates,Original*%
%TF.FileFunction,Copper,L2,Bot*%
%TF.FilePolarity,Positive*%
%FSLAX46Y46*%
G04 Gerber Fmt 4.6, Leading zero omitted, Abs format (unit mm)*
G04 Created by KiCad (PCBNEW (6.0.9-0)) date 2022-12-20 01:23:05*
%MOMM*%
%LPD*%
G01*
G04 APERTURE LIST*
%TA.AperFunction,ComponentPad*%
%ADD10R,1.700000X1.700000*%
%TD*%
%TA.AperFunction,ComponentPad*%
%ADD11O,1.700000X1.700000*%
%TD*%
%TA.AperFunction,ComponentPad*%
%ADD12R,1.600000X1.600000*%
%TD*%
%TA.AperFunction,ComponentPad*%
%ADD13O,1.600000X1.600000*%
%TD*%
%TA.AperFunction,ViaPad*%
%ADD14C,0.800000*%
%TD*%
%TA.AperFunction,Conductor*%
%ADD15C,0.250000*%
%TD*%
G04 APERTURE END LIST*
D10*
%TO.P,DATA_BUS1,1,D0*%
%TO.N,/D0*%
X142255000Y-62230000D03*
D11*
%TO.P,DATA_BUS1,2,D1*%
%TO.N,/D1*%
X144795000Y-62230000D03*
%TO.P,DATA_BUS1,3,D2*%
%TO.N,/D2*%
X147335000Y-62230000D03*
%TO.P,DATA_BUS1,4,D3*%
%TO.N,/D3*%
X149875000Y-62230000D03*
%TO.P,DATA_BUS1,5,D4*%
%TO.N,/D4*%
X152415000Y-62230000D03*
%TO.P,DATA_BUS1,6,D5*%
%TO.N,/D5*%
X154955000Y-62230000D03*
%TO.P,DATA_BUS1,7,D6*%
%TO.N,/D6*%
X157495000Y-62230000D03*
%TO.P,DATA_BUS1,8,D7*%
%TO.N,/D7*%
X160035000Y-62230000D03*
%TD*%
D12*
%TO.P,U2,1,~{E}*%
%TO.N,~{RegWE}*%
X160020000Y-73660000D03*
D13*
%TO.P,U2,2,Q0*%
%TO.N,/R7*%
X160020000Y-76200000D03*
%TO.P,U2,3,D0*%
%TO.N,/D7*%
X160020000Y-78740000D03*
%TO.P,U2,4,D1*%
%TO.N,/D6*%
X160020000Y-81280000D03*
%TO.P,U2,5,Q1*%
%TO.N,/R6*%
X160020000Y-83820000D03*
%TO.P,U2,6,Q2*%
%TO.N,/R5*%
X160020000Y-86360000D03*
%TO.P,U2,7,D2*%
%TO.N,/D5*%
X160020000Y-88900000D03*
%TO.P,U2,8,D3*%
%TO.N,/D4*%
X160020000Y-91440000D03*
%TO.P,U2,9,Q3*%
%TO.N,/R4*%
X160020000Y-93980000D03*
%TO.P,U2,10,GND*%
%TO.N,GND*%
X160020000Y-96520000D03*
%TO.P,U2,11,CP*%
%TO.N,CLK*%
X167640000Y-96520000D03*
%TO.P,U2,12,Q4*%
%TO.N,/R3*%
X167640000Y-93980000D03*
%TO.P,U2,13,D4*%
%TO.N,/D3*%
X167640000Y-91440000D03*
%TO.P,U2,14,D5*%
%TO.N,/D2*%
X167640000Y-88900000D03*
%TO.P,U2,15,Q5*%
%TO.N,/R2*%
X167640000Y-86360000D03*
%TO.P,U2,16,Q6*%
%TO.N,/R1*%
X167640000Y-83820000D03*
%TO.P,U2,17,D6*%
%TO.N,/D1*%
X167640000Y-81280000D03*
%TO.P,U2,18,D7*%
%TO.N,/D0*%
X167640000Y-78740000D03*
%TO.P,U2,19,Q7*%
%TO.N,/R0*%
X167640000Y-76200000D03*
%TO.P,U2,20,VCC*%
%TO.N,+5V*%
X167640000Y-73660000D03*
%TD*%
D10*
%TO.P,CONTROL1,1,RegOE*%
%TO.N,RegOE*%
X157480000Y-109220000D03*
D11*
%TO.P,CONTROL1,2,~{RegWE}*%
%TO.N,+5V*%
X160020000Y-109220000D03*
%TO.P,CONTROL1,3,CLK*%
%TO.N,GND*%
X162560000Y-109220000D03*
%TO.P,CONTROL1,4,+5V*%
%TO.N,~{RegWE}*%
X165100000Y-109220000D03*
%TO.P,CONTROL1,5,GND*%
%TO.N,CLK*%
X167640000Y-109220000D03*
%TD*%
D10*
%TO.P,LED_OUT1,1,R0*%
%TO.N,Net-(LED_OUT1-Pad1)*%
X152400000Y-109220000D03*
D11*
%TO.P,LED_OUT1,2,R1*%
%TO.N,Net-(LED_OUT1-Pad2)*%
X149860000Y-109220000D03*
%TO.P,LED_OUT1,3,R2*%
%TO.N,Net-(LED_OUT1-Pad3)*%
X147320000Y-109220000D03*
%TO.P,LED_OUT1,4,R3*%
%TO.N,Net-(LED_OUT1-Pad4)*%
X144780000Y-109220000D03*
%TO.P,LED_OUT1,5,R4*%
%TO.N,Net-(LED_OUT1-Pad5)*%
X142240000Y-109220000D03*
%TO.P,LED_OUT1,6,R5*%
%TO.N,Net-(LED_OUT1-Pad6)*%
X139700000Y-109220000D03*
%TO.P,LED_OUT1,7,R6*%
%TO.N,Net-(LED_OUT1-Pad7)*%
X137160000Y-109220000D03*
%TO.P,LED_OUT1,8,R7*%
%TO.N,Net-(LED_OUT1-Pad8)*%
X134620000Y-109220000D03*
%TD*%
D12*
%TO.P,U1,1,A->B*%
%TO.N,+5V*%
X142240000Y-96520000D03*
D13*
%TO.P,U1,2,A0*%
%TO.N,/R7*%
X142240000Y-93980000D03*
%TO.P,U1,3,A1*%
%TO.N,/R6*%
X142240000Y-91440000D03*
%TO.P,U1,4,A2*%
%TO.N,/R5*%
X142240000Y-88900000D03*
%TO.P,U1,5,A3*%
%TO.N,/R4*%
X142240000Y-86360000D03*
%TO.P,U1,6,A4*%
%TO.N,/R3*%
X142240000Y-83820000D03*
%TO.P,U1,7,A5*%
%TO.N,/R2*%
X142240000Y-81280000D03*
%TO.P,U1,8,A6*%
%TO.N,/R1*%
X142240000Y-78740000D03*
%TO.P,U1,9,A7*%
%TO.N,/R0*%
X142240000Y-76200000D03*
%TO.P,U1,10,GND*%
%TO.N,GND*%
X142240000Y-73660000D03*
%TO.P,U1,11,B7*%
%TO.N,/D0*%
X134620000Y-73660000D03*
%TO.P,U1,12,B6*%
%TO.N,/D1*%
X134620000Y-76200000D03*
%TO.P,U1,13,B5*%
%TO.N,/D2*%
X134620000Y-78740000D03*
%TO.P,U1,14,B4*%
%TO.N,/D3*%
X134620000Y-81280000D03*
%TO.P,U1,15,B3*%
%TO.N,/D4*%
X134620000Y-83820000D03*
%TO.P,U1,16,B2*%
%TO.N,/D5*%
X134620000Y-86360000D03*
%TO.P,U1,17,B1*%
%TO.N,/D6*%
X134620000Y-88900000D03*
%TO.P,U1,18,B0*%
%TO.N,/D7*%
X134620000Y-91440000D03*
%TO.P,U1,19,CE*%
%TO.N,RegOE*%
X134620000Y-93980000D03*
%TO.P,U1,20,VCC*%
%TO.N,+5V*%
X134620000Y-96520000D03*
%TD*%
D14*
%TO.N,/D0*%
X142240000Y-68580000D03*
%TO.N,/D1*%
X144780000Y-68580000D03*
%TO.N,/D2*%
X147320000Y-68580000D03*
%TO.N,/D3*%
X149860000Y-68580000D03*
%TO.N,/D4*%
X152400000Y-68580000D03*
%TO.N,/D5*%
X154940000Y-68580000D03*
%TO.N,/D6*%
X157480000Y-68580000D03*
%TO.N,/D7*%
X160020000Y-68580000D03*
%TD*%
D15*
%TO.N,+5V*%
X154306396Y-96520000D02*
X158480000Y-100693604D01*
X158480000Y-100693604D02*
X158480000Y-107680000D01*
X142240000Y-96520000D02*
X154306396Y-96520000D01*
X158480000Y-107680000D02*
X160020000Y-109220000D01*
%TO.N,/D0*%
X165100000Y-68580000D02*
X162110000Y-65590000D01*
X145230000Y-65590000D02*
X142240000Y-68580000D01*
X165100000Y-76200000D02*
X165100000Y-68580000D01*
X162110000Y-65590000D02*
X145230000Y-65590000D01*
X167640000Y-78740000D02*
X165100000Y-76200000D01*
%TO.N,/D1*%
X164650000Y-78290000D02*
X164650000Y-69400000D01*
X167640000Y-81280000D02*
X164650000Y-78290000D01*
X161290000Y-66040000D02*
X147320000Y-66040000D01*
X164650000Y-69400000D02*
X161290000Y-66040000D01*
X147320000Y-66040000D02*
X144780000Y-68580000D01*
%TO.N,/D2*%
X164200000Y-69586396D02*
X161103604Y-66490000D01*
X164200000Y-85460000D02*
X164200000Y-69586396D01*
X149410000Y-66490000D02*
X147320000Y-68580000D01*
X167640000Y-88900000D02*
X164200000Y-85460000D01*
X161103604Y-66490000D02*
X149410000Y-66490000D01*
%TO.N,/D3*%
X163750000Y-87550000D02*
X163750000Y-69772792D01*
X160917208Y-66940000D02*
X151500000Y-66940000D01*
X151500000Y-66940000D02*
X149860000Y-68580000D01*
X167640000Y-91440000D02*
X163750000Y-87550000D01*
X163750000Y-69772792D02*
X160917208Y-66940000D01*
%TO.N,/D4*%
X152400000Y-75569188D02*
X152400000Y-68580000D01*
X158495000Y-89915000D02*
X158495000Y-87462386D01*
X156657208Y-85624594D02*
X156657208Y-79826396D01*
X156657208Y-79826396D02*
X152400000Y-75569188D01*
X158495000Y-87462386D02*
X156657208Y-85624594D01*
X160020000Y-91440000D02*
X158495000Y-89915000D01*
%TO.N,/D5*%
X157107208Y-85438198D02*
X157107208Y-79640000D01*
X157107208Y-79640000D02*
X154940000Y-77472792D01*
X154940000Y-77472792D02*
X154940000Y-68580000D01*
X160020000Y-88900000D02*
X160020000Y-88350990D01*
X160020000Y-88350990D02*
X157107208Y-85438198D01*
%TO.N,/D6*%
X159383604Y-81280000D02*
X157480000Y-79376396D01*
X160020000Y-81280000D02*
X159383604Y-81280000D01*
X157480000Y-79376396D02*
X157480000Y-68580000D01*
%TO.N,/D7*%
X160020000Y-78740000D02*
X158495000Y-77215000D01*
X158495000Y-70105000D02*
X160020000Y-68580000D01*
X158495000Y-77215000D02*
X158495000Y-70105000D01*
%TO.N,RegOE*%
X157480000Y-109220000D02*
X157480000Y-100330000D01*
X157480000Y-100330000D02*
X154940000Y-97790000D01*
X138430000Y-97790000D02*
X134620000Y-93980000D01*
X154940000Y-97790000D02*
X138430000Y-97790000D01*
%TO.N,~{RegWE}*%
X160020000Y-73660000D02*
X162560000Y-76200000D01*
X162560000Y-106680000D02*
X165100000Y-109220000D01*
X162560000Y-76200000D02*
X162560000Y-106680000D01*
%TO.N,CLK*%
X167640000Y-96520000D02*
X167640000Y-109220000D01*
%TD*%
%TA.AperFunction,Conductor*%
%TO.N,GND*%
G36*
X140906202Y-60980002D02*
G01*
X140952695Y-61033658D01*
X140962799Y-61103932D01*
X140953161Y-61132836D01*
X140954385Y-61133295D01*
X140903255Y-61269684D01*
X140896500Y-61331866D01*
X140896500Y-63128134D01*
X140903255Y-63190316D01*
X140954385Y-63326705D01*
X141041739Y-63443261D01*
X141158295Y-63530615D01*
X141294684Y-63581745D01*
X141356866Y-63588500D01*
X143153134Y-63588500D01*
X143215316Y-63581745D01*
X143351705Y-63530615D01*
X143468261Y-63443261D01*
X143555615Y-63326705D01*
X143577799Y-63267529D01*
X143599598Y-63209382D01*
X143642240Y-63152618D01*
X143708802Y-63127918D01*
X143778150Y-63143126D01*
X143812817Y-63171114D01*
X143841250Y-63203938D01*
X144013126Y-63346632D01*
X144206000Y-63459338D01*
X144414692Y-63539030D01*
X144419760Y-63540061D01*
X144419763Y-63540062D01*
X144527017Y-63561883D01*
X144633597Y-63583567D01*
X144638772Y-63583757D01*
X144638774Y-63583757D01*
X144851673Y-63591564D01*
X144851677Y-63591564D01*
X144856837Y-63591753D01*
X144861957Y-63591097D01*
X144861959Y-63591097D01*
X145073288Y-63564025D01*
X145073289Y-63564025D01*
X145078416Y-63563368D01*
X145083366Y-63561883D01*
X145287429Y-63500661D01*
X145287434Y-63500659D01*
X145292384Y-63499174D01*
X145492994Y-63400896D01*
X145674860Y-63271173D01*
X145833096Y-63113489D01*
X145963453Y-62932077D01*
X145964776Y-62933028D01*
X146011645Y-62889857D01*
X146081580Y-62877625D01*
X146147026Y-62905144D01*
X146174875Y-62936994D01*
X146234987Y-63035088D01*
X146381250Y-63203938D01*
X146553126Y-63346632D01*
X146746000Y-63459338D01*
X146954692Y-63539030D01*
X146959760Y-63540061D01*
X146959763Y-63540062D01*
X147067017Y-63561883D01*
X147173597Y-63583567D01*
X147178772Y-63583757D01*
X147178774Y-63583757D01*
X147391673Y-63591564D01*
X147391677Y-63591564D01*
X147396837Y-63591753D01*
X147401957Y-63591097D01*
X147401959Y-63591097D01*
X147613288Y-63564025D01*
X147613289Y-63564025D01*
X147618416Y-63563368D01*
X147623366Y-63561883D01*
X147827429Y-63500661D01*
X147827434Y-63500659D01*
X147832384Y-63499174D01*
X148032994Y-63400896D01*
X148214860Y-63271173D01*
X148373096Y-63113489D01*
X148503453Y-62932077D01*
X148504776Y-62933028D01*
X148551645Y-62889857D01*
X148621580Y-62877625D01*
X148687026Y-62905144D01*
X148714875Y-62936994D01*
X148774987Y-63035088D01*
X148921250Y-63203938D01*
X149093126Y-63346632D01*
X149286000Y-63459338D01*
X149494692Y-63539030D01*
X149499760Y-63540061D01*
X149499763Y-63540062D01*
X149607017Y-63561883D01*
X149713597Y-63583567D01*
X149718772Y-63583757D01*
X149718774Y-63583757D01*
X149931673Y-63591564D01*
X149931677Y-63591564D01*
X149936837Y-63591753D01*
X149941957Y-63591097D01*
X149941959Y-63591097D01*
X150153288Y-63564025D01*
X150153289Y-63564025D01*
X150158416Y-63563368D01*
X150163366Y-63561883D01*
X150367429Y-63500661D01*
X150367434Y-63500659D01*
X150372384Y-63499174D01*
X150572994Y-63400896D01*
X150754860Y-63271173D01*
X150913096Y-63113489D01*
X151043453Y-62932077D01*
X151044776Y-62933028D01*
X151091645Y-62889857D01*
X151161580Y-62877625D01*
X151227026Y-62905144D01*
X151254875Y-62936994D01*
X151314987Y-63035088D01*
X151461250Y-63203938D01*
X151633126Y-63346632D01*
X151826000Y-63459338D01*
X152034692Y-63539030D01*
X152039760Y-63540061D01*
X152039763Y-63540062D01*
X152147017Y-63561883D01*
X152253597Y-63583567D01*
X152258772Y-63583757D01*
X152258774Y-63583757D01*
X152471673Y-63591564D01*
X152471677Y-63591564D01*
X152476837Y-63591753D01*
X152481957Y-63591097D01*
X152481959Y-63591097D01*
X152693288Y-63564025D01*
X152693289Y-63564025D01*
X152698416Y-63563368D01*
X152703366Y-63561883D01*
X152907429Y-63500661D01*
X152907434Y-63500659D01*
X152912384Y-63499174D01*
X153112994Y-63400896D01*
X153294860Y-63271173D01*
X153453096Y-63113489D01*
X153583453Y-62932077D01*
X153584776Y-62933028D01*
X153631645Y-62889857D01*
X153701580Y-62877625D01*
X153767026Y-62905144D01*
X153794875Y-62936994D01*
X153854987Y-63035088D01*
X154001250Y-63203938D01*
X154173126Y-63346632D01*
X154366000Y-63459338D01*
X154574692Y-63539030D01*
X154579760Y-63540061D01*
X154579763Y-63540062D01*
X154687017Y-63561883D01*
X154793597Y-63583567D01*
X154798772Y-63583757D01*
X154798774Y-63583757D01*
X155011673Y-63591564D01*
X155011677Y-63591564D01*
X155016837Y-63591753D01*
X155021957Y-63591097D01*
X155021959Y-63591097D01*
X155233288Y-63564025D01*
X155233289Y-63564025D01*
X155238416Y-63563368D01*
X155243366Y-63561883D01*
X155447429Y-63500661D01*
X155447434Y-63500659D01*
X155452384Y-63499174D01*
X155652994Y-63400896D01*
X155834860Y-63271173D01*
X155993096Y-63113489D01*
X156123453Y-62932077D01*
X156124776Y-62933028D01*
X156171645Y-62889857D01*
X156241580Y-62877625D01*
X156307026Y-62905144D01*
X156334875Y-62936994D01*
X156394987Y-63035088D01*
X156541250Y-63203938D01*
X156713126Y-63346632D01*
X156906000Y-63459338D01*
X157114692Y-63539030D01*
X157119760Y-63540061D01*
X157119763Y-63540062D01*
X157227017Y-63561883D01*
X157333597Y-63583567D01*
X157338772Y-63583757D01*
X157338774Y-63583757D01*
X157551673Y-63591564D01*
X157551677Y-63591564D01*
X157556837Y-63591753D01*
X157561957Y-63591097D01*
X157561959Y-63591097D01*
X157773288Y-63564025D01*
X157773289Y-63564025D01*
X157778416Y-63563368D01*
X157783366Y-63561883D01*
X157987429Y-63500661D01*
X157987434Y-63500659D01*
X157992384Y-63499174D01*
X158192994Y-63400896D01*
X158374860Y-63271173D01*
X158533096Y-63113489D01*
X158663453Y-62932077D01*
X158664776Y-62933028D01*
X158711645Y-62889857D01*
X158781580Y-62877625D01*
X158847026Y-62905144D01*
X158874875Y-62936994D01*
X158934987Y-63035088D01*
X159081250Y-63203938D01*
X159253126Y-63346632D01*
X159446000Y-63459338D01*
X159654692Y-63539030D01*
X159659760Y-63540061D01*
X159659763Y-63540062D01*
X159767017Y-63561883D01*
X159873597Y-63583567D01*
X159878772Y-63583757D01*
X159878774Y-63583757D01*
X160091673Y-63591564D01*
X160091677Y-63591564D01*
X160096837Y-63591753D01*
X160101957Y-63591097D01*
X160101959Y-63591097D01*
X160313288Y-63564025D01*
X160313289Y-63564025D01*
X160318416Y-63563368D01*
X160323366Y-63561883D01*
X160527429Y-63500661D01*
X160527434Y-63500659D01*
X160532384Y-63499174D01*
X160732994Y-63400896D01*
X160914860Y-63271173D01*
X161073096Y-63113489D01*
X161203453Y-62932077D01*
X161224320Y-62889857D01*
X161300136Y-62736453D01*
X161300137Y-62736451D01*
X161302430Y-62731811D01*
X161367370Y-62518069D01*
X161396529Y-62296590D01*
X161398156Y-62230000D01*
X161379852Y-62007361D01*
X161325431Y-61790702D01*
X161236354Y-61585840D01*
X161115014Y-61398277D01*
X160964670Y-61233051D01*
X160903677Y-61184881D01*
X160862615Y-61126964D01*
X160859383Y-61056041D01*
X160895009Y-60994630D01*
X160958180Y-60962228D01*
X160981770Y-60960000D01*
X170054000Y-60960000D01*
X170122121Y-60980002D01*
X170168614Y-61033658D01*
X170180000Y-61086000D01*
X170180000Y-110364000D01*
X170159998Y-110432121D01*
X170106342Y-110478614D01*
X170054000Y-110490000D01*
X168592680Y-110490000D01*
X168524559Y-110469998D01*
X168478066Y-110416342D01*
X168467962Y-110346068D01*
X168497456Y-110281488D01*
X168512189Y-110268089D01*
X168511702Y-110267513D01*
X168515657Y-110264171D01*
X168519860Y-110261173D01*
X168678096Y-110103489D01*
X168691919Y-110084253D01*
X168805435Y-109926277D01*
X168808453Y-109922077D01*
X168821995Y-109894678D01*
X168905136Y-109726453D01*
X168905137Y-109726451D01*
X168907430Y-109721811D01*
X168972370Y-109508069D01*
X169001529Y-109286590D01*
X169003156Y-109220000D01*
X168984852Y-108997361D01*
X168930431Y-108780702D01*
X168841354Y-108575840D01*
X168720014Y-108388277D01*
X168569670Y-108223051D01*
X168565619Y-108219852D01*
X168565615Y-108219848D01*
X168398414Y-108087800D01*
X168398410Y-108087798D01*
X168394359Y-108084598D01*
X168389835Y-108082101D01*
X168389831Y-108082098D01*
X168338608Y-108053822D01*
X168288636Y-108003390D01*
X168273500Y-107943513D01*
X168273500Y-97739394D01*
X168293502Y-97671273D01*
X168327229Y-97636181D01*
X168479789Y-97529357D01*
X168479792Y-97529355D01*
X168484300Y-97526198D01*
X168646198Y-97364300D01*
X168777523Y-97176749D01*
X168779846Y-97171767D01*
X168779849Y-97171762D01*
X168871961Y-96974225D01*
X168871961Y-96974224D01*
X168874284Y-96969243D01*
X168922970Y-96787548D01*
X168932119Y-96753402D01*
X168932119Y-96753400D01*
X168933543Y-96748087D01*
X168953498Y-96520000D01*
X168933543Y-96291913D01*
X168874284Y-96070757D01*
X168860591Y-96041392D01*
X168779849Y-95868238D01*
X168779846Y-95868233D01*
X168777523Y-95863251D01*
X168646198Y-95675700D01*
X168484300Y-95513802D01*
X168479792Y-95510645D01*
X168479789Y-95510643D01*
X168401611Y-95455902D01*
X168296749Y-95382477D01*
X168291767Y-95380154D01*
X168291762Y-95380151D01*
X168257543Y-95364195D01*
X168204258Y-95317278D01*
X168184797Y-95249001D01*
X168205339Y-95181041D01*
X168257543Y-95135805D01*
X168291762Y-95119849D01*
X168291767Y-95119846D01*
X168296749Y-95117523D01*
X168465289Y-94999510D01*
X168479789Y-94989357D01*
X168479792Y-94989355D01*
X168484300Y-94986198D01*
X168646198Y-94824300D01*
X168777523Y-94636749D01*
X168779846Y-94631767D01*
X168779849Y-94631762D01*
X168871961Y-94434225D01*
X168871961Y-94434224D01*
X168874284Y-94429243D01*
X168900626Y-94330936D01*
X168932119Y-94213402D01*
X168932119Y-94213400D01*
X168933543Y-94208087D01*
X168953498Y-93980000D01*
X168933543Y-93751913D01*
X168874284Y-93530757D01*
X168871961Y-93525775D01*
X168779849Y-93328238D01*
X168779846Y-93328233D01*
X168777523Y-93323251D01*
X168646198Y-93135700D01*
X168484300Y-92973802D01*
X168479792Y-92970645D01*
X168479789Y-92970643D01*
X168401611Y-92915902D01*
X168296749Y-92842477D01*
X168291767Y-92840154D01*
X168291762Y-92840151D01*
X168257543Y-92824195D01*
X168204258Y-92777278D01*
X168184797Y-92709001D01*
X168205339Y-92641041D01*
X168257543Y-92595805D01*
X168291762Y-92579849D01*
X168291767Y-92579846D01*
X168296749Y-92577523D01*
X168401611Y-92504098D01*
X168479789Y-92449357D01*
X168479792Y-92449355D01*
X168484300Y-92446198D01*
X168646198Y-92284300D01*
X168777523Y-92096749D01*
X168779846Y-92091767D01*
X168779849Y-92091762D01*
X168871961Y-91894225D01*
X168871961Y-91894224D01*
X168874284Y-91889243D01*
X168933543Y-91668087D01*
X168953498Y-91440000D01*
X168933543Y-91211913D01*
X168932117Y-91206591D01*
X168875707Y-90996067D01*
X168875706Y-90996065D01*
X168874284Y-90990757D01*
X168871961Y-90985775D01*
X168779849Y-90788238D01*
X168779846Y-90788233D01*
X168777523Y-90783251D01*
X168646198Y-90595700D01*
X168484300Y-90433802D01*
X168479792Y-90430645D01*
X168479789Y-90430643D01*
X168358469Y-90345694D01*
X168296749Y-90302477D01*
X168291767Y-90300154D01*
X168291762Y-90300151D01*
X168257543Y-90284195D01*
X168204258Y-90237278D01*
X168184797Y-90169001D01*
X168205339Y-90101041D01*
X168257543Y-90055805D01*
X168291762Y-90039849D01*
X168291767Y-90039846D01*
X168296749Y-90037523D01*
X168420471Y-89950892D01*
X168479789Y-89909357D01*
X168479792Y-89909355D01*
X168484300Y-89906198D01*
X168646198Y-89744300D01*
X168777523Y-89556749D01*
X168779846Y-89551767D01*
X168779849Y-89551762D01*
X168871961Y-89354225D01*
X168871961Y-89354224D01*
X168874284Y-89349243D01*
X168933543Y-89128087D01*
X168953498Y-88900000D01*
X168933543Y-88671913D01*
X168932117Y-88666591D01*
X168875707Y-88456067D01*
X168875706Y-88456065D01*
X168874284Y-88450757D01*
X168871961Y-88445775D01*
X168779849Y-88248238D01*
X168779846Y-88248233D01*
X168777523Y-88243251D01*
X168646198Y-88055700D01*
X168484300Y-87893802D01*
X168479792Y-87890645D01*
X168479789Y-87890643D01*
X168317461Y-87776980D01*
X168296749Y-87762477D01*
X168291767Y-87760154D01*
X168291762Y-87760151D01*
X168257543Y-87744195D01*
X168204258Y-87697278D01*
X168184797Y-87629001D01*
X168205339Y-87561041D01*
X168257543Y-87515805D01*
X168291762Y-87499849D01*
X168291767Y-87499846D01*
X168296749Y-87497523D01*
X168401611Y-87424098D01*
X168479789Y-87369357D01*
X168479792Y-87369355D01*
X168484300Y-87366198D01*
X168646198Y-87204300D01*
X168777523Y-87016749D01*
X168779846Y-87011767D01*
X168779849Y-87011762D01*
X168871961Y-86814225D01*
X168871961Y-86814224D01*
X168874284Y-86809243D01*
X168933543Y-86588087D01*
X168953498Y-86360000D01*
X168933543Y-86131913D01*
X168932119Y-86126598D01*
X168875707Y-85916067D01*
X168875706Y-85916065D01*
X168874284Y-85910757D01*
X168871961Y-85905775D01*
X168779849Y-85708238D01*
X168779846Y-85708233D01*
X168777523Y-85703251D01*
X168646198Y-85515700D01*
X168484300Y-85353802D01*
X168479792Y-85350645D01*
X168479789Y-85350643D01*
X168401611Y-85295902D01*
X168296749Y-85222477D01*
X168291767Y-85220154D01*
X168291762Y-85220151D01*
X168257543Y-85204195D01*
X168204258Y-85157278D01*
X168184797Y-85089001D01*
X168205339Y-85021041D01*
X168257543Y-84975805D01*
X168291762Y-84959849D01*
X168291767Y-84959846D01*
X168296749Y-84957523D01*
X168401611Y-84884098D01*
X168479789Y-84829357D01*
X168479792Y-84829355D01*
X168484300Y-84826198D01*
X168646198Y-84664300D01*
X168777523Y-84476749D01*
X168779846Y-84471767D01*
X168779849Y-84471762D01*
X168871961Y-84274225D01*
X168871961Y-84274224D01*
X168874284Y-84269243D01*
X168933543Y-84048087D01*
X168953498Y-83820000D01*
X168933543Y-83591913D01*
X168874284Y-83370757D01*
X168871961Y-83365775D01*
X168779849Y-83168238D01*
X168779846Y-83168233D01*
X168777523Y-83163251D01*
X168646198Y-82975700D01*
X168484300Y-82813802D01*
X168479792Y-82810645D01*
X168479789Y-82810643D01*
X168401611Y-82755902D01*
X168296749Y-82682477D01*
X168291767Y-82680154D01*
X168291762Y-82680151D01*
X168257543Y-82664195D01*
X168204258Y-82617278D01*
X168184797Y-82549001D01*
X168205339Y-82481041D01*
X168257543Y-82435805D01*
X168291762Y-82419849D01*
X168291767Y-82419846D01*
X168296749Y-82417523D01*
X168401611Y-82344098D01*
X168479789Y-82289357D01*
X168479792Y-82289355D01*
X168484300Y-82286198D01*
X168646198Y-82124300D01*
X168777523Y-81936749D01*
X168779846Y-81931767D01*
X168779849Y-81931762D01*
X168871961Y-81734225D01*
X168871961Y-81734224D01*
X168874284Y-81729243D01*
X168920900Y-81555273D01*
X168932119Y-81513402D01*
X168932119Y-81513400D01*
X168933543Y-81508087D01*
X168953498Y-81280000D01*
X168933543Y-81051913D01*
X168932117Y-81046591D01*
X168875707Y-80836067D01*
X168875706Y-80836065D01*
X168874284Y-80830757D01*
X168871961Y-80825775D01*
X168779849Y-80628238D01*
X168779846Y-80628233D01*
X168777523Y-80623251D01*
X168646198Y-80435700D01*
X168484300Y-80273802D01*
X168479792Y-80270645D01*
X168479789Y-80270643D01*
X168340283Y-80172960D01*
X168296749Y-80142477D01*
X168291767Y-80140154D01*
X168291762Y-80140151D01*
X168257543Y-80124195D01*
X168204258Y-80077278D01*
X168184797Y-80009001D01*
X168205339Y-79941041D01*
X168257543Y-79895805D01*
X168291762Y-79879849D01*
X168291767Y-79879846D01*
X168296749Y-79877523D01*
X168401611Y-79804098D01*
X168479789Y-79749357D01*
X168479792Y-79749355D01*
X168484300Y-79746198D01*
X168646198Y-79584300D01*
X168650351Y-79578370D01*
X168774366Y-79401257D01*
X168777523Y-79396749D01*
X168779846Y-79391767D01*
X168779849Y-79391762D01*
X168871961Y-79194225D01*
X168871961Y-79194224D01*
X168874284Y-79189243D01*
X168933543Y-78968087D01*
X168953498Y-78740000D01*
X168933543Y-78511913D01*
X168925900Y-78483388D01*
X168875707Y-78296067D01*
X168875706Y-78296065D01*
X168874284Y-78290757D01*
X168822264Y-78179198D01*
X168779849Y-78088238D01*
X168779846Y-78088233D01*
X168777523Y-78083251D01*
X168646198Y-77895700D01*
X168484300Y-77733802D01*
X168479792Y-77730645D01*
X168479789Y-77730643D01*
X168401611Y-77675902D01*
X168296749Y-77602477D01*
X168291767Y-77600154D01*
X168291762Y-77600151D01*
X168257543Y-77584195D01*
X168204258Y-77537278D01*
X168184797Y-77469001D01*
X168205339Y-77401041D01*
X168257543Y-77355805D01*
X168291762Y-77339849D01*
X168291767Y-77339846D01*
X168296749Y-77337523D01*
X168478318Y-77210387D01*
X168479789Y-77209357D01*
X168479792Y-77209355D01*
X168484300Y-77206198D01*
X168646198Y-77044300D01*
X168777523Y-76856749D01*
X168779846Y-76851767D01*
X168779849Y-76851762D01*
X168871961Y-76654225D01*
X168871961Y-76654224D01*
X168874284Y-76649243D01*
X168910364Y-76514594D01*
X168932119Y-76433402D01*
X168932119Y-76433400D01*
X168933543Y-76428087D01*
X168953498Y-76200000D01*
X168933543Y-75971913D01*
X168928669Y-75953723D01*
X168875707Y-75756067D01*
X168875706Y-75756065D01*
X168874284Y-75750757D01*
X168871961Y-75745775D01*
X168779849Y-75548238D01*
X168779846Y-75548233D01*
X168777523Y-75543251D01*
X168646198Y-75355700D01*
X168484300Y-75193802D01*
X168479792Y-75190645D01*
X168479789Y-75190643D01*
X168401611Y-75135902D01*
X168296749Y-75062477D01*
X168291767Y-75060154D01*
X168291762Y-75060151D01*
X168257543Y-75044195D01*
X168204258Y-74997278D01*
X168184797Y-74929001D01*
X168205339Y-74861041D01*
X168257543Y-74815805D01*
X168291762Y-74799849D01*
X168291767Y-74799846D01*
X168296749Y-74797523D01*
X168401611Y-74724098D01*
X168479789Y-74669357D01*
X168479792Y-74669355D01*
X168484300Y-74666198D01*
X168646198Y-74504300D01*
X168777523Y-74316749D01*
X168779846Y-74311767D01*
X168779849Y-74311762D01*
X168871961Y-74114225D01*
X168871961Y-74114224D01*
X168874284Y-74109243D01*
X168933543Y-73888087D01*
X168953498Y-73660000D01*
X168933543Y-73431913D01*
X168923244Y-73393478D01*
X168875707Y-73216067D01*
X168875706Y-73216065D01*
X168874284Y-73210757D01*
X168779966Y-73008489D01*
X168779849Y-73008238D01*
X168779846Y-73008233D01*
X168777523Y-73003251D01*
X168646198Y-72815700D01*
X168484300Y-72653802D01*
X168479792Y-72650645D01*
X168479789Y-72650643D01*
X168401611Y-72595902D01*
X168296749Y-72522477D01*
X168291767Y-72520154D01*
X168291762Y-72520151D01*
X168094225Y-72428039D01*
X168094224Y-72428039D01*
X168089243Y-72425716D01*
X168083935Y-72424294D01*
X168083933Y-72424293D01*
X167873402Y-72367881D01*
X167873400Y-72367881D01*
X167868087Y-72366457D01*
X167640000Y-72346502D01*
X167411913Y-72366457D01*
X167406600Y-72367881D01*
X167406598Y-72367881D01*
X167196067Y-72424293D01*
X167196065Y-72424294D01*
X167190757Y-72425716D01*
X167185776Y-72428039D01*
X167185775Y-72428039D01*
X166988238Y-72520151D01*
X166988233Y-72520154D01*
X166983251Y-72522477D01*
X166878389Y-72595902D01*
X166800211Y-72650643D01*
X166800208Y-72650645D01*
X166795700Y-72653802D01*
X166633802Y-72815700D01*
X166502477Y-73003251D01*
X166500154Y-73008233D01*
X166500151Y-73008238D01*
X166500034Y-73008489D01*
X166405716Y-73210757D01*
X166404294Y-73216065D01*
X166404293Y-73216067D01*
X166356756Y-73393478D01*
X166346457Y-73431913D01*
X166326502Y-73660000D01*
X166346457Y-73888087D01*
X166405716Y-74109243D01*
X166408039Y-74114224D01*
X166408039Y-74114225D01*
X166500151Y-74311762D01*
X166500154Y-74311767D01*
X166502477Y-74316749D01*
X166633802Y-74504300D01*
X166795700Y-74666198D01*
X166800208Y-74669355D01*
X166800211Y-74669357D01*
X166878389Y-74724098D01*
X166983251Y-74797523D01*
X166988233Y-74799846D01*
X166988238Y-74799849D01*
X167022457Y-74815805D01*
X167075742Y-74862722D01*
X167095203Y-74930999D01*
X167074661Y-74998959D01*
X167022457Y-75044195D01*
X166988238Y-75060151D01*
X166988233Y-75060154D01*
X166983251Y-75062477D01*
X166878389Y-75135902D01*
X166800211Y-75190643D01*
X166800208Y-75190645D01*
X166795700Y-75193802D01*
X166633802Y-75355700D01*
X166502477Y-75543251D01*
X166500154Y-75548233D01*
X166500151Y-75548238D01*
X166408039Y-75745775D01*
X166405716Y-75750757D01*
X166404294Y-75756065D01*
X166404293Y-75756067D01*
X166351331Y-75953723D01*
X166346457Y-75971913D01*
X166326502Y-76200000D01*
X166326981Y-76205475D01*
X166326981Y-76205485D01*
X166328026Y-76217428D01*
X166314038Y-76287033D01*
X166264639Y-76338026D01*
X166195514Y-76354217D01*
X166128608Y-76330465D01*
X166113411Y-76317506D01*
X165770405Y-75974500D01*
X165736379Y-75912188D01*
X165733500Y-75885405D01*
X165733500Y-68658768D01*
X165734027Y-68647585D01*
X165735702Y-68640092D01*
X165733562Y-68572001D01*
X165733500Y-68568044D01*
X165733500Y-68540144D01*
X165732996Y-68536153D01*
X165732063Y-68524311D01*
X165730923Y-68488036D01*
X165730674Y-68480111D01*
X165725021Y-68460652D01*
X165721012Y-68441293D01*
X165720846Y-68439983D01*
X165718474Y-68421203D01*
X165715558Y-68413837D01*
X165715556Y-68413831D01*
X165702200Y-68380098D01*
X165698355Y-68368868D01*
X165688230Y-68334017D01*
X165688230Y-68334016D01*
X165686019Y-68326407D01*
X165675705Y-68308966D01*
X165667008Y-68291213D01*
X165662472Y-68279758D01*
X165659552Y-68272383D01*
X165633563Y-68236612D01*
X165627047Y-68226692D01*
X165616255Y-68208444D01*
X165604542Y-68188638D01*
X165590221Y-68174317D01*
X165577380Y-68159283D01*
X165570131Y-68149306D01*
X165565472Y-68142893D01*
X165531395Y-68114702D01*
X165522616Y-68106712D01*
X162613652Y-65197747D01*
X162606112Y-65189461D01*
X162602000Y-65182982D01*
X162552348Y-65136356D01*
X162549507Y-65133602D01*
X162529770Y-65113865D01*
X162526573Y-65111385D01*
X162517551Y-65103680D01*
X162513397Y-65099779D01*
X162485321Y-65073414D01*
X162478375Y-65069595D01*
X162478372Y-65069593D01*
X162467566Y-65063652D01*
X162451047Y-65052801D01*
X162450583Y-65052441D01*
X162435041Y-65040386D01*
X162427772Y-65037241D01*
X162427768Y-65037238D01*
X162394463Y-65022826D01*
X162383813Y-65017609D01*
X162345060Y-64996305D01*
X162325437Y-64991267D01*
X162306734Y-64984863D01*
X162295420Y-64979967D01*
X162295419Y-64979967D01*
X162288145Y-64976819D01*
X162280322Y-64975580D01*
X162280312Y-64975577D01*
X162244476Y-64969901D01*
X162232856Y-64967495D01*
X162197711Y-64958472D01*
X162197710Y-64958472D01*
X162190030Y-64956500D01*
X162169776Y-64956500D01*
X162150065Y-64954949D01*
X162137886Y-64953020D01*
X162130057Y-64951780D01*
X162100786Y-64954547D01*
X162086039Y-64955941D01*
X162074181Y-64956500D01*
X145308768Y-64956500D01*
X145297585Y-64955973D01*
X145290092Y-64954298D01*
X145282166Y-64954547D01*
X145282165Y-64954547D01*
X145222002Y-64956438D01*
X145218044Y-64956500D01*
X145190144Y-64956500D01*
X145186154Y-64957004D01*
X145174320Y-64957936D01*
X145130111Y-64959326D01*
X145122495Y-64961539D01*
X145122493Y-64961539D01*
X145110652Y-64964979D01*
X145091293Y-64968988D01*
X145089983Y-64969154D01*
X145071203Y-64971526D01*
X145063837Y-64974442D01*
X145063831Y-64974444D01*
X145030098Y-64987800D01*
X145018868Y-64991645D01*
X145002828Y-64996305D01*
X144976407Y-65003981D01*
X144969584Y-65008016D01*
X144958966Y-65014295D01*
X144941213Y-65022992D01*
X144933568Y-65026019D01*
X144922383Y-65030448D01*
X144908705Y-65040386D01*
X144886612Y-65056437D01*
X144876695Y-65062951D01*
X144838638Y-65085458D01*
X144824317Y-65099779D01*
X144809284Y-65112619D01*
X144792893Y-65124528D01*
X144784217Y-65135016D01*
X144764702Y-65158605D01*
X144756712Y-65167384D01*
X142289500Y-67634595D01*
X142227188Y-67668621D01*
X142200405Y-67671500D01*
X142144513Y-67671500D01*
X142138061Y-67672872D01*
X142138056Y-67672872D01*
X142051112Y-67691353D01*
X141957712Y-67711206D01*
X141951682Y-67713891D01*
X141951681Y-67713891D01*
X141789278Y-67786197D01*
X141789276Y-67786198D01*
X141783248Y-67788882D01*
X141628747Y-67901134D01*
X141500960Y-68043056D01*
X141497659Y-68048774D01*
X141412968Y-68195463D01*
X141405473Y-68208444D01*
X141346458Y-68390072D01*
X141345768Y-68396633D01*
X141345768Y-68396635D01*
X141340040Y-68451133D01*
X141326496Y-68580000D01*
X141346458Y-68769928D01*
X141405473Y-68951556D01*
X141500960Y-69116944D01*
X141628747Y-69258866D01*
X141783248Y-69371118D01*
X141789276Y-69373802D01*
X141789278Y-69373803D01*
X141869514Y-69409526D01*
X141957712Y-69448794D01*
X142051112Y-69468647D01*
X142138056Y-69487128D01*
X142138061Y-69487128D01*
X142144513Y-69488500D01*
X142335487Y-69488500D01*
X142341939Y-69487128D01*
X142341944Y-69487128D01*
X142428888Y-69468647D01*
X142522288Y-69448794D01*
X142610486Y-69409526D01*
X142690722Y-69373803D01*
X142690724Y-69373802D01*
X142696752Y-69371118D01*
X142851253Y-69258866D01*
X142979040Y-69116944D01*
X143074527Y-68951556D01*
X143133542Y-68769928D01*
X143150907Y-68604706D01*
X143177920Y-68539050D01*
X143187122Y-68528782D01*
X143966498Y-67749406D01*
X143989852Y-67736654D01*
X143995674Y-67721699D01*
X144006359Y-67709545D01*
X145455499Y-66260405D01*
X145517811Y-66226379D01*
X145544594Y-66223500D01*
X145936405Y-66223500D01*
X146004526Y-66243502D01*
X146051019Y-66297158D01*
X146061123Y-66367432D01*
X146031629Y-66432012D01*
X146025500Y-66438595D01*
X144829500Y-67634595D01*
X144767188Y-67668621D01*
X144740405Y-67671500D01*
X144684513Y-67671500D01*
X144678061Y-67672872D01*
X144678056Y-67672872D01*
X144591112Y-67691353D01*
X144497712Y-67711206D01*
X144491682Y-67713891D01*
X144491681Y-67713891D01*
X144329278Y-67786197D01*
X144329276Y-67786198D01*
X144323248Y-67788882D01*
X144317907Y-67792762D01*
X144317906Y-67792763D01*
X144169515Y-67900576D01*
X144163450Y-67902740D01*
X144149229Y-67922811D01*
X144040960Y-68043056D01*
X144037659Y-68048774D01*
X143952968Y-68195463D01*
X143945473Y-68208444D01*
X143886458Y-68390072D01*
X143885768Y-68396633D01*
X143885768Y-68396635D01*
X143880040Y-68451133D01*
X143866496Y-68580000D01*
X143886458Y-68769928D01*
X143945473Y-68951556D01*
X144040960Y-69116944D01*
X144168747Y-69258866D01*
X144323248Y-69371118D01*
X144329276Y-69373802D01*
X144329278Y-69373803D01*
X144409514Y-69409526D01*
X144497712Y-69448794D01*
X144591112Y-69468647D01*
X144678056Y-69487128D01*
X144678061Y-69487128D01*
X144684513Y-69488500D01*
X144875487Y-69488500D01*
X144881939Y-69487128D01*
X144881944Y-69487128D01*
X144968888Y-69468647D01*
X145062288Y-69448794D01*
X145150486Y-69409526D01*
X145230722Y-69373803D01*
X145230724Y-69373802D01*
X145236752Y-69371118D01*
X145391253Y-69258866D01*
X145519040Y-69116944D01*
X145614527Y-68951556D01*
X145673542Y-68769928D01*
X145690907Y-68604706D01*
X145717920Y-68539050D01*
X145727122Y-68528782D01*
X146506498Y-67749406D01*
X146529852Y-67736654D01*
X146535674Y-67721699D01*
X146546359Y-67709545D01*
X147545499Y-66710405D01*
X147607811Y-66676379D01*
X147634594Y-66673500D01*
X148026405Y-66673500D01*
X148094526Y-66693502D01*
X148141019Y-66747158D01*
X148151123Y-66817432D01*
X148121629Y-66882012D01*
X148115500Y-66888595D01*
X147369500Y-67634595D01*
X147307188Y-67668621D01*
X147280405Y-67671500D01*
X147224513Y-67671500D01*
X147218061Y-67672872D01*
X147218056Y-67672872D01*
X147131112Y-67691353D01*
X147037712Y-67711206D01*
X147031682Y-67713891D01*
X147031681Y-67713891D01*
X146869278Y-67786197D01*
X146869276Y-67786198D01*
X146863248Y-67788882D01*
X146857907Y-67792762D01*
X146857906Y-67792763D01*
X146709515Y-67900576D01*
X146703450Y-67902740D01*
X146689229Y-67922811D01*
X146580960Y-68043056D01*
X146577659Y-68048774D01*
X146492968Y-68195463D01*
X146485473Y-68208444D01*
X146426458Y-68390072D01*
X146425768Y-68396633D01*
X146425768Y-68396635D01*
X146420040Y-68451133D01*
X146406496Y-68580000D01*
X146426458Y-68769928D01*
X146485473Y-68951556D01*
X146580960Y-69116944D01*
X146708747Y-69258866D01*
X146863248Y-69371118D01*
X146869276Y-69373802D01*
X146869278Y-69373803D01*
X146949514Y-69409526D01*
X147037712Y-69448794D01*
X147131112Y-69468647D01*
X147218056Y-69487128D01*
X147218061Y-69487128D01*
X147224513Y-69488500D01*
X147415487Y-69488500D01*
X147421939Y-69487128D01*
X147421944Y-69487128D01*
X147508888Y-69468647D01*
X147602288Y-69448794D01*
X147690486Y-69409526D01*
X147770722Y-69373803D01*
X147770724Y-69373802D01*
X147776752Y-69371118D01*
X147931253Y-69258866D01*
X148059040Y-69116944D01*
X148154527Y-68951556D01*
X148213542Y-68769928D01*
X148230907Y-68604706D01*
X148257920Y-68539050D01*
X148267122Y-68528782D01*
X149046498Y-67749406D01*
X149069852Y-67736654D01*
X149075674Y-67721699D01*
X149086359Y-67709545D01*
X149635499Y-67160405D01*
X149697811Y-67126379D01*
X149724594Y-67123500D01*
X150116405Y-67123500D01*
X150184526Y-67143502D01*
X150231019Y-67197158D01*
X150241123Y-67267432D01*
X150211629Y-67332012D01*
X150205500Y-67338595D01*
X149909500Y-67634595D01*
X149847188Y-67668621D01*
X149820405Y-67671500D01*
X149764513Y-67671500D01*
X149758061Y-67672872D01*
X149758056Y-67672872D01*
X149671112Y-67691353D01*
X149577712Y-67711206D01*
X149571682Y-67713891D01*
X149571681Y-67713891D01*
X149409278Y-67786197D01*
X149409276Y-67786198D01*
X149403248Y-67788882D01*
X149397907Y-67792762D01*
X149397906Y-67792763D01*
X149249515Y-67900576D01*
X149243450Y-67902740D01*
X149229229Y-67922811D01*
X149120960Y-68043056D01*
X149117659Y-68048774D01*
X149032968Y-68195463D01*
X149025473Y-68208444D01*
X148966458Y-68390072D01*
X148965768Y-68396633D01*
X148965768Y-68396635D01*
X148960040Y-68451133D01*
X148946496Y-68580000D01*
X148966458Y-68769928D01*
X149025473Y-68951556D01*
X149120960Y-69116944D01*
X149248747Y-69258866D01*
X149403248Y-69371118D01*
X149409276Y-69373802D01*
X149409278Y-69373803D01*
X149489514Y-69409526D01*
X149577712Y-69448794D01*
X149671112Y-69468647D01*
X149758056Y-69487128D01*
X149758061Y-69487128D01*
X149764513Y-69488500D01*
X149955487Y-69488500D01*
X149961939Y-69487128D01*
X149961944Y-69487128D01*
X150048888Y-69468647D01*
X150142288Y-69448794D01*
X150230486Y-69409526D01*
X150310722Y-69373803D01*
X150310724Y-69373802D01*
X150316752Y-69371118D01*
X150471253Y-69258866D01*
X150599040Y-69116944D01*
X150694527Y-68951556D01*
X150753542Y-68769928D01*
X150770907Y-68604706D01*
X150797920Y-68539050D01*
X150807122Y-68528782D01*
X151586498Y-67749406D01*
X151609852Y-67736654D01*
X151615674Y-67721699D01*
X151626359Y-67709545D01*
X151725499Y-67610405D01*
X151787811Y-67576379D01*
X151814594Y-67573500D01*
X151851908Y-67573500D01*
X151920029Y-67593502D01*
X151966522Y-67647158D01*
X151976626Y-67717432D01*
X151947132Y-67782012D01*
X151925969Y-67801436D01*
X151789515Y-67900576D01*
X151783450Y-67902740D01*
X151769229Y-67922811D01*
X151660960Y-68043056D01*
X151657659Y-68048774D01*
X151572968Y-68195463D01*
X151565473Y-68208444D01*
X151506458Y-68390072D01*
X151505768Y-68396633D01*
X151505768Y-68396635D01*
X151500040Y-68451133D01*
X151486496Y-68580000D01*
X151506458Y-68769928D01*
X151565473Y-68951556D01*
X151660960Y-69116944D01*
X151734137Y-69198215D01*
X151764853Y-69262221D01*
X151766500Y-69282524D01*
X151766500Y-75490421D01*
X151765973Y-75501604D01*
X151764298Y-75509097D01*
X151764547Y-75517023D01*
X151764547Y-75517024D01*
X151766438Y-75577174D01*
X151766500Y-75581133D01*
X151766500Y-75609044D01*
X151766997Y-75612978D01*
X151766997Y-75612979D01*
X151767005Y-75613044D01*
X151767938Y-75624881D01*
X151769327Y-75669077D01*
X151772827Y-75681123D01*
X151774978Y-75688527D01*
X151778987Y-75707888D01*
X151781526Y-75727985D01*
X151784445Y-75735356D01*
X151784445Y-75735358D01*
X151797804Y-75769100D01*
X151801649Y-75780330D01*
X151813982Y-75822781D01*
X151818015Y-75829600D01*
X151818017Y-75829605D01*
X151824293Y-75840216D01*
X151832988Y-75857964D01*
X151840448Y-75876805D01*
X151845110Y-75883221D01*
X151845110Y-75883222D01*
X151866436Y-75912575D01*
X151872952Y-75922495D01*
X151895458Y-75960550D01*
X151909779Y-75974871D01*
X151922619Y-75989904D01*
X151934528Y-76006295D01*
X151940634Y-76011346D01*
X151968605Y-76034486D01*
X151977384Y-76042476D01*
X155986803Y-80051895D01*
X156020829Y-80114207D01*
X156023708Y-80140990D01*
X156023708Y-85545827D01*
X156023181Y-85557010D01*
X156021506Y-85564503D01*
X156021755Y-85572429D01*
X156021755Y-85572430D01*
X156023646Y-85632580D01*
X156023708Y-85636539D01*
X156023708Y-85664450D01*
X156024205Y-85668384D01*
X156024205Y-85668385D01*
X156024213Y-85668450D01*
X156025146Y-85680287D01*
X156026535Y-85724483D01*
X156032186Y-85743933D01*
X156036195Y-85763294D01*
X156038734Y-85783391D01*
X156041653Y-85790762D01*
X156041653Y-85790764D01*
X156055012Y-85824506D01*
X156058857Y-85835736D01*
X156071190Y-85878187D01*
X156075223Y-85885006D01*
X156075225Y-85885011D01*
X156081501Y-85895622D01*
X156090196Y-85913370D01*
X156097656Y-85932211D01*
X156102318Y-85938627D01*
X156102318Y-85938628D01*
X156123644Y-85967981D01*
X156130160Y-85977901D01*
X156143800Y-86000964D01*
X156152666Y-86015956D01*
X156166987Y-86030277D01*
X156179827Y-86045310D01*
X156191736Y-86061701D01*
X156197842Y-86066752D01*
X156225813Y-86089892D01*
X156234592Y-86097882D01*
X157824595Y-87687885D01*
X157858621Y-87750197D01*
X157861500Y-87776980D01*
X157861500Y-89836233D01*
X157860973Y-89847416D01*
X157859298Y-89854909D01*
X157859547Y-89862835D01*
X157859547Y-89862836D01*
X157861438Y-89922986D01*
X157861500Y-89926945D01*
X157861500Y-89954856D01*
X157861997Y-89958790D01*
X157861997Y-89958791D01*
X157862005Y-89958856D01*
X157862938Y-89970693D01*
X157864327Y-90014889D01*
X157869978Y-90034339D01*
X157873987Y-90053700D01*
X157876526Y-90073797D01*
X157879445Y-90081168D01*
X157879445Y-90081170D01*
X157892804Y-90114912D01*
X157896649Y-90126142D01*
X157906771Y-90160983D01*
X157908982Y-90168593D01*
X157913015Y-90175412D01*
X157913017Y-90175417D01*
X157919293Y-90186028D01*
X157927988Y-90203776D01*
X157935448Y-90222617D01*
X157940110Y-90229033D01*
X157940110Y-90229034D01*
X157961436Y-90258387D01*
X157967952Y-90268307D01*
X157990458Y-90306362D01*
X158004779Y-90320683D01*
X158017619Y-90335716D01*
X158029528Y-90352107D01*
X158035634Y-90357158D01*
X158063605Y-90380298D01*
X158072384Y-90388288D01*
X158710848Y-91026752D01*
X158744874Y-91089064D01*
X158743459Y-91148459D01*
X158727882Y-91206591D01*
X158727881Y-91206598D01*
X158726457Y-91211913D01*
X158706502Y-91440000D01*
X158726457Y-91668087D01*
X158785716Y-91889243D01*
X158788039Y-91894224D01*
X158788039Y-91894225D01*
X158880151Y-92091762D01*
X158880154Y-92091767D01*
X158882477Y-92096749D01*
X159013802Y-92284300D01*
X159175700Y-92446198D01*
X159180208Y-92449355D01*
X159180211Y-92449357D01*
X159258389Y-92504098D01*
X159363251Y-92577523D01*
X159368233Y-92579846D01*
X159368238Y-92579849D01*
X159402457Y-92595805D01*
X159455742Y-92642722D01*
X159475203Y-92710999D01*
X159454661Y-92778959D01*
X159402457Y-92824195D01*
X159368238Y-92840151D01*
X159368233Y-92840154D01*
X159363251Y-92842477D01*
X159258389Y-92915902D01*
X159180211Y-92970643D01*
X159180208Y-92970645D01*
X159175700Y-92973802D01*
X159013802Y-93135700D01*
X158882477Y-93323251D01*
X158880154Y-93328233D01*
X158880151Y-93328238D01*
X158788039Y-93525775D01*
X158785716Y-93530757D01*
X158726457Y-93751913D01*
X158706502Y-93980000D01*
X158726457Y-94208087D01*
X158727881Y-94213400D01*
X158727881Y-94213402D01*
X158759375Y-94330936D01*
X158785716Y-94429243D01*
X158788039Y-94434224D01*
X158788039Y-94434225D01*
X158880151Y-94631762D01*
X158880154Y-94631767D01*
X158882477Y-94636749D01*
X159013802Y-94824300D01*
X159175700Y-94986198D01*
X159180208Y-94989355D01*
X159180211Y-94989357D01*
X159194711Y-94999510D01*
X159363251Y-95117523D01*
X159368233Y-95119846D01*
X159368238Y-95119849D01*
X159403049Y-95136081D01*
X159456334Y-95182998D01*
X159475795Y-95251275D01*
X159455253Y-95319235D01*
X159403049Y-95364471D01*
X159368489Y-95380586D01*
X159358993Y-95386069D01*
X159180533Y-95511028D01*
X159172125Y-95518084D01*
X159018084Y-95672125D01*
X159011028Y-95680533D01*
X158886069Y-95858993D01*
X158880586Y-95868489D01*
X158788510Y-96065947D01*
X158784764Y-96076239D01*
X158738606Y-96248503D01*
X158738942Y-96262599D01*
X158746884Y-96266000D01*
X161287967Y-96266000D01*
X161301498Y-96262027D01*
X161302727Y-96253478D01*
X161255236Y-96076239D01*
X161251490Y-96065947D01*
X161159414Y-95868489D01*
X161153931Y-95858993D01*
X161028972Y-95680533D01*
X161021916Y-95672125D01*
X160867875Y-95518084D01*
X160859467Y-95511028D01*
X160681007Y-95386069D01*
X160671511Y-95380586D01*
X160636951Y-95364471D01*
X160583666Y-95317554D01*
X160564205Y-95249277D01*
X160584747Y-95181317D01*
X160636951Y-95136081D01*
X160671762Y-95119849D01*
X160671767Y-95119846D01*
X160676749Y-95117523D01*
X160845289Y-94999510D01*
X160859789Y-94989357D01*
X160859792Y-94989355D01*
X160864300Y-94986198D01*
X161026198Y-94824300D01*
X161157523Y-94636749D01*
X161159846Y-94631767D01*
X161159849Y-94631762D01*
X161251961Y-94434225D01*
X161251961Y-94434224D01*
X161254284Y-94429243D01*
X161280626Y-94330936D01*
X161312119Y-94213402D01*
X161312119Y-94213400D01*
X161313543Y-94208087D01*
X161333498Y-93980000D01*
X161313543Y-93751913D01*
X161254284Y-93530757D01*
X161251961Y-93525775D01*
X161159849Y-93328238D01*
X161159846Y-93328233D01*
X161157523Y-93323251D01*
X161026198Y-93135700D01*
X160864300Y-92973802D01*
X160859792Y-92970645D01*
X160859789Y-92970643D01*
X160781611Y-92915902D01*
X160676749Y-92842477D01*
X160671767Y-92840154D01*
X160671762Y-92840151D01*
X160637543Y-92824195D01*
X160584258Y-92777278D01*
X160564797Y-92709001D01*
X160585339Y-92641041D01*
X160637543Y-92595805D01*
X160671762Y-92579849D01*
X160671767Y-92579846D01*
X160676749Y-92577523D01*
X160781611Y-92504098D01*
X160859789Y-92449357D01*
X160859792Y-92449355D01*
X160864300Y-92446198D01*
X161026198Y-92284300D01*
X161157523Y-92096749D01*
X161159846Y-92091767D01*
X161159849Y-92091762D01*
X161251961Y-91894225D01*
X161251961Y-91894224D01*
X161254284Y-91889243D01*
X161313543Y-91668087D01*
X161333498Y-91440000D01*
X161313543Y-91211913D01*
X161312117Y-91206591D01*
X161255707Y-90996067D01*
X161255706Y-90996065D01*
X161254284Y-90990757D01*
X161251961Y-90985775D01*
X161159849Y-90788238D01*
X161159846Y-90788233D01*
X161157523Y-90783251D01*
X161026198Y-90595700D01*
X160864300Y-90433802D01*
X160859792Y-90430645D01*
X160859789Y-90430643D01*
X160738469Y-90345694D01*
X160676749Y-90302477D01*
X160671767Y-90300154D01*
X160671762Y-90300151D01*
X160637543Y-90284195D01*
X160584258Y-90237278D01*
X160564797Y-90169001D01*
X160585339Y-90101041D01*
X160637543Y-90055805D01*
X160671762Y-90039849D01*
X160671767Y-90039846D01*
X160676749Y-90037523D01*
X160800471Y-89950892D01*
X160859789Y-89909357D01*
X160859792Y-89909355D01*
X160864300Y-89906198D01*
X161026198Y-89744300D01*
X161157523Y-89556749D01*
X161159846Y-89551767D01*
X161159849Y-89551762D01*
X161251961Y-89354225D01*
X161251961Y-89354224D01*
X161254284Y-89349243D01*
X161313543Y-89128087D01*
X161333498Y-88900000D01*
X161313543Y-88671913D01*
X161312117Y-88666591D01*
X161255707Y-88456067D01*
X161255706Y-88456065D01*
X161254284Y-88450757D01*
X161251961Y-88445775D01*
X161159849Y-88248238D01*
X161159846Y-88248233D01*
X161157523Y-88243251D01*
X161026198Y-88055700D01*
X160864300Y-87893802D01*
X160859792Y-87890645D01*
X160859789Y-87890643D01*
X160697461Y-87776980D01*
X160676749Y-87762477D01*
X160671767Y-87760154D01*
X160671762Y-87760151D01*
X160637543Y-87744195D01*
X160584258Y-87697278D01*
X160564797Y-87629001D01*
X160585339Y-87561041D01*
X160637543Y-87515805D01*
X160671762Y-87499849D01*
X160671767Y-87499846D01*
X160676749Y-87497523D01*
X160781611Y-87424098D01*
X160859789Y-87369357D01*
X160859792Y-87369355D01*
X160864300Y-87366198D01*
X161026198Y-87204300D01*
X161157523Y-87016749D01*
X161159846Y-87011767D01*
X161159849Y-87011762D01*
X161251961Y-86814225D01*
X161251961Y-86814224D01*
X161254284Y-86809243D01*
X161313543Y-86588087D01*
X161333498Y-86360000D01*
X161313543Y-86131913D01*
X161312119Y-86126598D01*
X161255707Y-85916067D01*
X161255706Y-85916065D01*
X161254284Y-85910757D01*
X161251961Y-85905775D01*
X161159849Y-85708238D01*
X161159846Y-85708233D01*
X161157523Y-85703251D01*
X161026198Y-85515700D01*
X160864300Y-85353802D01*
X160859792Y-85350645D01*
X160859789Y-85350643D01*
X160781611Y-85295902D01*
X160676749Y-85222477D01*
X160671767Y-85220154D01*
X160671762Y-85220151D01*
X160637543Y-85204195D01*
X160584258Y-85157278D01*
X160564797Y-85089001D01*
X160585339Y-85021041D01*
X160637543Y-84975805D01*
X160671762Y-84959849D01*
X160671767Y-84959846D01*
X160676749Y-84957523D01*
X160781611Y-84884098D01*
X160859789Y-84829357D01*
X160859792Y-84829355D01*
X160864300Y-84826198D01*
X161026198Y-84664300D01*
X161157523Y-84476749D01*
X161159846Y-84471767D01*
X161159849Y-84471762D01*
X161251961Y-84274225D01*
X161251961Y-84274224D01*
X161254284Y-84269243D01*
X161313543Y-84048087D01*
X161333498Y-83820000D01*
X161313543Y-83591913D01*
X161254284Y-83370757D01*
X161251961Y-83365775D01*
X161159849Y-83168238D01*
X161159846Y-83168233D01*
X161157523Y-83163251D01*
X161026198Y-82975700D01*
X160864300Y-82813802D01*
X160859792Y-82810645D01*
X160859789Y-82810643D01*
X160781611Y-82755902D01*
X160676749Y-82682477D01*
X160671767Y-82680154D01*
X160671762Y-82680151D01*
X160637543Y-82664195D01*
X160584258Y-82617278D01*
X160564797Y-82549001D01*
X160585339Y-82481041D01*
X160637543Y-82435805D01*
X160671762Y-82419849D01*
X160671767Y-82419846D01*
X160676749Y-82417523D01*
X160781611Y-82344098D01*
X160859789Y-82289357D01*
X160859792Y-82289355D01*
X160864300Y-82286198D01*
X161026198Y-82124300D01*
X161157523Y-81936749D01*
X161159846Y-81931767D01*
X161159849Y-81931762D01*
X161251961Y-81734225D01*
X161251961Y-81734224D01*
X161254284Y-81729243D01*
X161300900Y-81555273D01*
X161312119Y-81513402D01*
X161312119Y-81513400D01*
X161313543Y-81508087D01*
X161333498Y-81280000D01*
X161313543Y-81051913D01*
X161312117Y-81046591D01*
X161255707Y-80836067D01*
X161255706Y-80836065D01*
X161254284Y-80830757D01*
X161251961Y-80825775D01*
X161159849Y-80628238D01*
X161159846Y-80628233D01*
X161157523Y-80623251D01*
X161026198Y-80435700D01*
X160864300Y-80273802D01*
X160859792Y-80270645D01*
X160859789Y-80270643D01*
X160720283Y-80172960D01*
X160676749Y-80142477D01*
X160671767Y-80140154D01*
X160671762Y-80140151D01*
X160637543Y-80124195D01*
X160584258Y-80077278D01*
X160564797Y-80009001D01*
X160585339Y-79941041D01*
X160637543Y-79895805D01*
X160671762Y-79879849D01*
X160671767Y-79879846D01*
X160676749Y-79877523D01*
X160781611Y-79804098D01*
X160859789Y-79749357D01*
X160859792Y-79749355D01*
X160864300Y-79746198D01*
X161026198Y-79584300D01*
X161030351Y-79578370D01*
X161154366Y-79401257D01*
X161157523Y-79396749D01*
X161159846Y-79391767D01*
X161159849Y-79391762D01*
X161251961Y-79194225D01*
X161251961Y-79194224D01*
X161254284Y-79189243D01*
X161313543Y-78968087D01*
X161333498Y-78740000D01*
X161313543Y-78511913D01*
X161305900Y-78483388D01*
X161255707Y-78296067D01*
X161255706Y-78296065D01*
X161254284Y-78290757D01*
X161202264Y-78179198D01*
X161159849Y-78088238D01*
X161159846Y-78088233D01*
X161157523Y-78083251D01*
X161026198Y-77895700D01*
X160864300Y-77733802D01*
X160859792Y-77730645D01*
X160859789Y-77730643D01*
X160781611Y-77675902D01*
X160676749Y-77602477D01*
X160671767Y-77600154D01*
X160671762Y-77600151D01*
X160637543Y-77584195D01*
X160584258Y-77537278D01*
X160564797Y-77469001D01*
X160585339Y-77401041D01*
X160637543Y-77355805D01*
X160671762Y-77339849D01*
X160671767Y-77339846D01*
X160676749Y-77337523D01*
X160858318Y-77210387D01*
X160859789Y-77209357D01*
X160859792Y-77209355D01*
X160864300Y-77206198D01*
X161026198Y-77044300D01*
X161157523Y-76856749D01*
X161159846Y-76851767D01*
X161159849Y-76851762D01*
X161251961Y-76654225D01*
X161251961Y-76654224D01*
X161254284Y-76649243D01*
X161290364Y-76514594D01*
X161312119Y-76433402D01*
X161312119Y-76433400D01*
X161313543Y-76428087D01*
X161333498Y-76200000D01*
X161333019Y-76194525D01*
X161333019Y-76194514D01*
X161331974Y-76182570D01*
X161345962Y-76112965D01*
X161395361Y-76061973D01*
X161464487Y-76045782D01*
X161531393Y-76069534D01*
X161546589Y-76082493D01*
X161889595Y-76425499D01*
X161923621Y-76487811D01*
X161926500Y-76514594D01*
X161926500Y-106601233D01*
X161925973Y-106612416D01*
X161924298Y-106619909D01*
X161924547Y-106627835D01*
X161924547Y-106627836D01*
X161926438Y-106687986D01*
X161926500Y-106691945D01*
X161926500Y-106719856D01*
X161926997Y-106723790D01*
X161926997Y-106723791D01*
X161927005Y-106723856D01*
X161927938Y-106735693D01*
X161929327Y-106779889D01*
X161934978Y-106799339D01*
X161938987Y-106818700D01*
X161941526Y-106838797D01*
X161944445Y-106846168D01*
X161944445Y-106846170D01*
X161957804Y-106879912D01*
X161961649Y-106891142D01*
X161973982Y-106933593D01*
X161978015Y-106940412D01*
X161978017Y-106940417D01*
X161984293Y-106951028D01*
X161992988Y-106968776D01*
X162000448Y-106987617D01*
X162005110Y-106994033D01*
X162005110Y-106994034D01*
X162026436Y-107023387D01*
X162032952Y-107033307D01*
X162055458Y-107071362D01*
X162069779Y-107085683D01*
X162082619Y-107100716D01*
X162094528Y-107117107D01*
X162100634Y-107122158D01*
X162128605Y-107145298D01*
X162137384Y-107153288D01*
X162777975Y-107793879D01*
X162812001Y-107856191D01*
X162810694Y-107885795D01*
X162814000Y-107885795D01*
X162814000Y-109348000D01*
X162793998Y-109416121D01*
X162740342Y-109462614D01*
X162688000Y-109474000D01*
X162432000Y-109474000D01*
X162363879Y-109453998D01*
X162317386Y-109400342D01*
X162306000Y-109348000D01*
X162306000Y-107903102D01*
X162302082Y-107889758D01*
X162287806Y-107887771D01*
X162249324Y-107893660D01*
X162239288Y-107896051D01*
X162036868Y-107962212D01*
X162027359Y-107966209D01*
X161838463Y-108064542D01*
X161829738Y-108070036D01*
X161659433Y-108197905D01*
X161651726Y-108204748D01*
X161504590Y-108358717D01*
X161498109Y-108366722D01*
X161393498Y-108520074D01*
X161338587Y-108565076D01*
X161268062Y-108573247D01*
X161204315Y-108541993D01*
X161183618Y-108517509D01*
X161102822Y-108392617D01*
X161102820Y-108392614D01*
X161100014Y-108388277D01*
X160949670Y-108223051D01*
X160945619Y-108219852D01*
X160945615Y-108219848D01*
X160778414Y-108087800D01*
X160778410Y-108087798D01*
X160774359Y-108084598D01*
X160769831Y-108082098D01*
X160653988Y-108018150D01*
X160578789Y-107976638D01*
X160573920Y-107974914D01*
X160573916Y-107974912D01*
X160373087Y-107903795D01*
X160373083Y-107903794D01*
X160368212Y-107902069D01*
X160363119Y-107901162D01*
X160363116Y-107901161D01*
X160153373Y-107863800D01*
X160153367Y-107863799D01*
X160148284Y-107862894D01*
X160074452Y-107861992D01*
X159930081Y-107860228D01*
X159930079Y-107860228D01*
X159924911Y-107860165D01*
X159704091Y-107893955D01*
X159691532Y-107898060D01*
X159620568Y-107900210D01*
X159563294Y-107867389D01*
X159150405Y-107454500D01*
X159116379Y-107392188D01*
X159113500Y-107365405D01*
X159113500Y-100772367D01*
X159114027Y-100761183D01*
X159115701Y-100753695D01*
X159113562Y-100685636D01*
X159113500Y-100681679D01*
X159113500Y-100653748D01*
X159112994Y-100649742D01*
X159112061Y-100637896D01*
X159110922Y-100601641D01*
X159110673Y-100593714D01*
X159105022Y-100574262D01*
X159101014Y-100554910D01*
X159099468Y-100542672D01*
X159099467Y-100542670D01*
X159098474Y-100534807D01*
X159082194Y-100493690D01*
X159078359Y-100482489D01*
X159066018Y-100440010D01*
X159061985Y-100433191D01*
X159061983Y-100433186D01*
X159055707Y-100422575D01*
X159047010Y-100404825D01*
X159039552Y-100385987D01*
X159013571Y-100350227D01*
X159007053Y-100340305D01*
X158988578Y-100309064D01*
X158988574Y-100309059D01*
X158984542Y-100302241D01*
X158970218Y-100287917D01*
X158957376Y-100272882D01*
X158945472Y-100256497D01*
X158911406Y-100228315D01*
X158902627Y-100220326D01*
X155468823Y-96786522D01*
X158737273Y-96786522D01*
X158784764Y-96963761D01*
X158788510Y-96974053D01*
X158880586Y-97171511D01*
X158886069Y-97181007D01*
X159011028Y-97359467D01*
X159018084Y-97367875D01*
X159172125Y-97521916D01*
X159180533Y-97528972D01*
X159358993Y-97653931D01*
X159368489Y-97659414D01*
X159565947Y-97751490D01*
X159576239Y-97755236D01*
X159748503Y-97801394D01*
X159762599Y-97801058D01*
X159766000Y-97793116D01*
X159766000Y-97787967D01*
X160274000Y-97787967D01*
X160277973Y-97801498D01*
X160286522Y-97802727D01*
X160463761Y-97755236D01*
X160474053Y-97751490D01*
X160671511Y-97659414D01*
X160681007Y-97653931D01*
X160859467Y-97528972D01*
X160867875Y-97521916D01*
X161021916Y-97367875D01*
X161028972Y-97359467D01*
X161153931Y-97181007D01*
X161159414Y-97171511D01*
X161251490Y-96974053D01*
X161255236Y-96963761D01*
X161301394Y-96791497D01*
X161301058Y-96777401D01*
X161293116Y-96774000D01*
X160292115Y-96774000D01*
X160276876Y-96778475D01*
X160275671Y-96779865D01*
X160274000Y-96787548D01*
X160274000Y-97787967D01*
X159766000Y-97787967D01*
X159766000Y-96792115D01*
X159761525Y-96776876D01*
X159760135Y-96775671D01*
X159752452Y-96774000D01*
X158752033Y-96774000D01*
X158738502Y-96777973D01*
X158737273Y-96786522D01*
X155468823Y-96786522D01*
X154810048Y-96127747D01*
X154802508Y-96119461D01*
X154798396Y-96112982D01*
X154748744Y-96066356D01*
X154745903Y-96063602D01*
X154726166Y-96043865D01*
X154722969Y-96041385D01*
X154713947Y-96033680D01*
X154687496Y-96008841D01*
X154681717Y-96003414D01*
X154674771Y-95999595D01*
X154674768Y-95999593D01*
X154663962Y-95993652D01*
X154647443Y-95982801D01*
X154646979Y-95982441D01*
X154631437Y-95970386D01*
X154624168Y-95967241D01*
X154624164Y-95967238D01*
X154590859Y-95952826D01*
X154580209Y-95947609D01*
X154541456Y-95926305D01*
X154521833Y-95921267D01*
X154503130Y-95914863D01*
X154491816Y-95909967D01*
X154491815Y-95909967D01*
X154484541Y-95906819D01*
X154476718Y-95905580D01*
X154476708Y-95905577D01*
X154440872Y-95899901D01*
X154429252Y-95897495D01*
X154394107Y-95888472D01*
X154394106Y-95888472D01*
X154386426Y-95886500D01*
X154366172Y-95886500D01*
X154346461Y-95884949D01*
X154334282Y-95883020D01*
X154326453Y-95881780D01*
X154318561Y-95882526D01*
X154282435Y-95885941D01*
X154270577Y-95886500D01*
X143674500Y-95886500D01*
X143606379Y-95866498D01*
X143559886Y-95812842D01*
X143548500Y-95760500D01*
X143548500Y-95671866D01*
X143541745Y-95609684D01*
X143490615Y-95473295D01*
X143403261Y-95356739D01*
X143286705Y-95269385D01*
X143150316Y-95218255D01*
X143139526Y-95217083D01*
X143137394Y-95216197D01*
X143134778Y-95215575D01*
X143134879Y-95215152D01*
X143073965Y-95189845D01*
X143033537Y-95131483D01*
X143031078Y-95060529D01*
X143067371Y-94999510D01*
X143076031Y-94992511D01*
X143079793Y-94989354D01*
X143084300Y-94986198D01*
X143246198Y-94824300D01*
X143377523Y-94636749D01*
X143379846Y-94631767D01*
X143379849Y-94631762D01*
X143471961Y-94434225D01*
X143471961Y-94434224D01*
X143474284Y-94429243D01*
X143500626Y-94330936D01*
X143532119Y-94213402D01*
X143532119Y-94213400D01*
X143533543Y-94208087D01*
X143553498Y-93980000D01*
X143533543Y-93751913D01*
X143474284Y-93530757D01*
X143471961Y-93525775D01*
X143379849Y-93328238D01*
X143379846Y-93328233D01*
X143377523Y-93323251D01*
X143246198Y-93135700D01*
X143084300Y-92973802D01*
X143079792Y-92970645D01*
X143079789Y-92970643D01*
X143001611Y-92915902D01*
X142896749Y-92842477D01*
X142891767Y-92840154D01*
X142891762Y-92840151D01*
X142857543Y-92824195D01*
X142804258Y-92777278D01*
X142784797Y-92709001D01*
X142805339Y-92641041D01*
X142857543Y-92595805D01*
X142891762Y-92579849D01*
X142891767Y-92579846D01*
X142896749Y-92577523D01*
X143001611Y-92504098D01*
X143079789Y-92449357D01*
X143079792Y-92449355D01*
X143084300Y-92446198D01*
X143246198Y-92284300D01*
X143377523Y-92096749D01*
X143379846Y-92091767D01*
X143379849Y-92091762D01*
X143471961Y-91894225D01*
X143471961Y-91894224D01*
X143474284Y-91889243D01*
X143533543Y-91668087D01*
X143553498Y-91440000D01*
X143533543Y-91211913D01*
X143532117Y-91206591D01*
X143475707Y-90996067D01*
X143475706Y-90996065D01*
X143474284Y-90990757D01*
X143471961Y-90985775D01*
X143379849Y-90788238D01*
X143379846Y-90788233D01*
X143377523Y-90783251D01*
X143246198Y-90595700D01*
X143084300Y-90433802D01*
X143079792Y-90430645D01*
X143079789Y-90430643D01*
X142958469Y-90345694D01*
X142896749Y-90302477D01*
X142891767Y-90300154D01*
X142891762Y-90300151D01*
X142857543Y-90284195D01*
X142804258Y-90237278D01*
X142784797Y-90169001D01*
X142805339Y-90101041D01*
X142857543Y-90055805D01*
X142891762Y-90039849D01*
X142891767Y-90039846D01*
X142896749Y-90037523D01*
X143020471Y-89950892D01*
X143079789Y-89909357D01*
X143079792Y-89909355D01*
X143084300Y-89906198D01*
X143246198Y-89744300D01*
X143377523Y-89556749D01*
X143379846Y-89551767D01*
X143379849Y-89551762D01*
X143471961Y-89354225D01*
X143471961Y-89354224D01*
X143474284Y-89349243D01*
X143533543Y-89128087D01*
X143553498Y-88900000D01*
X143533543Y-88671913D01*
X143532117Y-88666591D01*
X143475707Y-88456067D01*
X143475706Y-88456065D01*
X143474284Y-88450757D01*
X143471961Y-88445775D01*
X143379849Y-88248238D01*
X143379846Y-88248233D01*
X143377523Y-88243251D01*
X143246198Y-88055700D01*
X143084300Y-87893802D01*
X143079792Y-87890645D01*
X143079789Y-87890643D01*
X142917461Y-87776980D01*
X142896749Y-87762477D01*
X142891767Y-87760154D01*
X142891762Y-87760151D01*
X142857543Y-87744195D01*
X142804258Y-87697278D01*
X142784797Y-87629001D01*
X142805339Y-87561041D01*
X142857543Y-87515805D01*
X142891762Y-87499849D01*
X142891767Y-87499846D01*
X142896749Y-87497523D01*
X143001611Y-87424098D01*
X143079789Y-87369357D01*
X143079792Y-87369355D01*
X143084300Y-87366198D01*
X143246198Y-87204300D01*
X143377523Y-87016749D01*
X143379846Y-87011767D01*
X143379849Y-87011762D01*
X143471961Y-86814225D01*
X143471961Y-86814224D01*
X143474284Y-86809243D01*
X143533543Y-86588087D01*
X143553498Y-86360000D01*
X143533543Y-86131913D01*
X143532119Y-86126598D01*
X143475707Y-85916067D01*
X143475706Y-85916065D01*
X143474284Y-85910757D01*
X143471961Y-85905775D01*
X143379849Y-85708238D01*
X143379846Y-85708233D01*
X143377523Y-85703251D01*
X143246198Y-85515700D01*
X143084300Y-85353802D01*
X143079792Y-85350645D01*
X143079789Y-85350643D01*
X143001611Y-85295902D01*
X142896749Y-85222477D01*
X142891767Y-85220154D01*
X142891762Y-85220151D01*
X142857543Y-85204195D01*
X142804258Y-85157278D01*
X142784797Y-85089001D01*
X142805339Y-85021041D01*
X142857543Y-84975805D01*
X142891762Y-84959849D01*
X142891767Y-84959846D01*
X142896749Y-84957523D01*
X143001611Y-84884098D01*
X143079789Y-84829357D01*
X143079792Y-84829355D01*
X143084300Y-84826198D01*
X143246198Y-84664300D01*
X143377523Y-84476749D01*
X143379846Y-84471767D01*
X143379849Y-84471762D01*
X143471961Y-84274225D01*
X143471961Y-84274224D01*
X143474284Y-84269243D01*
X143533543Y-84048087D01*
X143553498Y-83820000D01*
X143533543Y-83591913D01*
X143474284Y-83370757D01*
X143471961Y-83365775D01*
X143379849Y-83168238D01*
X143379846Y-83168233D01*
X143377523Y-83163251D01*
X143246198Y-82975700D01*
X143084300Y-82813802D01*
X143079792Y-82810645D01*
X143079789Y-82810643D01*
X143001611Y-82755902D01*
X142896749Y-82682477D01*
X142891767Y-82680154D01*
X142891762Y-82680151D01*
X142857543Y-82664195D01*
X142804258Y-82617278D01*
X142784797Y-82549001D01*
X142805339Y-82481041D01*
X142857543Y-82435805D01*
X142891762Y-82419849D01*
X142891767Y-82419846D01*
X142896749Y-82417523D01*
X143001611Y-82344098D01*
X143079789Y-82289357D01*
X143079792Y-82289355D01*
X143084300Y-82286198D01*
X143246198Y-82124300D01*
X143377523Y-81936749D01*
X143379846Y-81931767D01*
X143379849Y-81931762D01*
X143471961Y-81734225D01*
X143471961Y-81734224D01*
X143474284Y-81729243D01*
X143520900Y-81555273D01*
X143532119Y-81513402D01*
X143532119Y-81513400D01*
X143533543Y-81508087D01*
X143553498Y-81280000D01*
X143533543Y-81051913D01*
X143532117Y-81046591D01*
X143475707Y-80836067D01*
X143475706Y-80836065D01*
X143474284Y-80830757D01*
X143471961Y-80825775D01*
X143379849Y-80628238D01*
X143379846Y-80628233D01*
X143377523Y-80623251D01*
X143246198Y-80435700D01*
X143084300Y-80273802D01*
X143079792Y-80270645D01*
X143079789Y-80270643D01*
X142940283Y-80172960D01*
X142896749Y-80142477D01*
X142891767Y-80140154D01*
X142891762Y-80140151D01*
X142857543Y-80124195D01*
X142804258Y-80077278D01*
X142784797Y-80009001D01*
X142805339Y-79941041D01*
X142857543Y-79895805D01*
X142891762Y-79879849D01*
X142891767Y-79879846D01*
X142896749Y-79877523D01*
X143001611Y-79804098D01*
X143079789Y-79749357D01*
X143079792Y-79749355D01*
X143084300Y-79746198D01*
X143246198Y-79584300D01*
X143250351Y-79578370D01*
X143374366Y-79401257D01*
X143377523Y-79396749D01*
X143379846Y-79391767D01*
X143379849Y-79391762D01*
X143471961Y-79194225D01*
X143471961Y-79194224D01*
X143474284Y-79189243D01*
X143533543Y-78968087D01*
X143553498Y-78740000D01*
X143533543Y-78511913D01*
X143525900Y-78483388D01*
X143475707Y-78296067D01*
X143475706Y-78296065D01*
X143474284Y-78290757D01*
X143422264Y-78179198D01*
X143379849Y-78088238D01*
X143379846Y-78088233D01*
X143377523Y-78083251D01*
X143246198Y-77895700D01*
X143084300Y-77733802D01*
X143079792Y-77730645D01*
X143079789Y-77730643D01*
X143001611Y-77675902D01*
X142896749Y-77602477D01*
X142891767Y-77600154D01*
X142891762Y-77600151D01*
X142857543Y-77584195D01*
X142804258Y-77537278D01*
X142784797Y-77469001D01*
X142805339Y-77401041D01*
X142857543Y-77355805D01*
X142891762Y-77339849D01*
X142891767Y-77339846D01*
X142896749Y-77337523D01*
X143078318Y-77210387D01*
X143079789Y-77209357D01*
X143079792Y-77209355D01*
X143084300Y-77206198D01*
X143246198Y-77044300D01*
X143377523Y-76856749D01*
X143379846Y-76851767D01*
X143379849Y-76851762D01*
X143471961Y-76654225D01*
X143471961Y-76654224D01*
X143474284Y-76649243D01*
X143510364Y-76514594D01*
X143532119Y-76433402D01*
X143532119Y-76433400D01*
X143533543Y-76428087D01*
X143553498Y-76200000D01*
X143533543Y-75971913D01*
X143528669Y-75953723D01*
X143475707Y-75756067D01*
X143475706Y-75756065D01*
X143474284Y-75750757D01*
X143471961Y-75745775D01*
X143379849Y-75548238D01*
X143379846Y-75548233D01*
X143377523Y-75543251D01*
X143246198Y-75355700D01*
X143084300Y-75193802D01*
X143079792Y-75190645D01*
X143079789Y-75190643D01*
X143001611Y-75135902D01*
X142896749Y-75062477D01*
X142891767Y-75060154D01*
X142891762Y-75060151D01*
X142856951Y-75043919D01*
X142803666Y-74997002D01*
X142784205Y-74928725D01*
X142804747Y-74860765D01*
X142856951Y-74815529D01*
X142891511Y-74799414D01*
X142901007Y-74793931D01*
X143079467Y-74668972D01*
X143087875Y-74661916D01*
X143241916Y-74507875D01*
X143248972Y-74499467D01*
X143373931Y-74321007D01*
X143379414Y-74311511D01*
X143471490Y-74114053D01*
X143475236Y-74103761D01*
X143521394Y-73931497D01*
X143521058Y-73917401D01*
X143513116Y-73914000D01*
X140972033Y-73914000D01*
X140958502Y-73917973D01*
X140957273Y-73926522D01*
X141004764Y-74103761D01*
X141008510Y-74114053D01*
X141100586Y-74311511D01*
X141106069Y-74321007D01*
X141231028Y-74499467D01*
X141238084Y-74507875D01*
X141392125Y-74661916D01*
X141400533Y-74668972D01*
X141578993Y-74793931D01*
X141588489Y-74799414D01*
X141623049Y-74815529D01*
X141676334Y-74862446D01*
X141695795Y-74930723D01*
X141675253Y-74998683D01*
X141623049Y-75043919D01*
X141588238Y-75060151D01*
X141588233Y-75060154D01*
X141583251Y-75062477D01*
X141478389Y-75135902D01*
X141400211Y-75190643D01*
X141400208Y-75190645D01*
X141395700Y-75193802D01*
X141233802Y-75355700D01*
X141102477Y-75543251D01*
X141100154Y-75548233D01*
X141100151Y-75548238D01*
X141008039Y-75745775D01*
X141005716Y-75750757D01*
X141004294Y-75756065D01*
X141004293Y-75756067D01*
X140951331Y-75953723D01*
X140946457Y-75971913D01*
X140926502Y-76200000D01*
X140946457Y-76428087D01*
X140947881Y-76433400D01*
X140947881Y-76433402D01*
X140969637Y-76514594D01*
X141005716Y-76649243D01*
X141008039Y-76654224D01*
X141008039Y-76654225D01*
X141100151Y-76851762D01*
X141100154Y-76851767D01*
X141102477Y-76856749D01*
X141233802Y-77044300D01*
X141395700Y-77206198D01*
X141400208Y-77209355D01*
X141400211Y-77209357D01*
X141401682Y-77210387D01*
X141583251Y-77337523D01*
X141588233Y-77339846D01*
X141588238Y-77339849D01*
X141622457Y-77355805D01*
X141675742Y-77402722D01*
X141695203Y-77470999D01*
X141674661Y-77538959D01*
X141622457Y-77584195D01*
X141588238Y-77600151D01*
X141588233Y-77600154D01*
X141583251Y-77602477D01*
X141478389Y-77675902D01*
X141400211Y-77730643D01*
X141400208Y-77730645D01*
X141395700Y-77733802D01*
X141233802Y-77895700D01*
X141102477Y-78083251D01*
X141100154Y-78088233D01*
X141100151Y-78088238D01*
X141057736Y-78179198D01*
X141005716Y-78290757D01*
X141004294Y-78296065D01*
X141004293Y-78296067D01*
X140954100Y-78483388D01*
X140946457Y-78511913D01*
X140926502Y-78740000D01*
X140946457Y-78968087D01*
X141005716Y-79189243D01*
X141008039Y-79194224D01*
X141008039Y-79194225D01*
X141100151Y-79391762D01*
X141100154Y-79391767D01*
X141102477Y-79396749D01*
X141105634Y-79401257D01*
X141229650Y-79578370D01*
X141233802Y-79584300D01*
X141395700Y-79746198D01*
X141400208Y-79749355D01*
X141400211Y-79749357D01*
X141478389Y-79804098D01*
X141583251Y-79877523D01*
X141588233Y-79879846D01*
X141588238Y-79879849D01*
X141622457Y-79895805D01*
X141675742Y-79942722D01*
X141695203Y-80010999D01*
X141674661Y-80078959D01*
X141622457Y-80124195D01*
X141588238Y-80140151D01*
X141588233Y-80140154D01*
X141583251Y-80142477D01*
X141539717Y-80172960D01*
X141400211Y-80270643D01*
X141400208Y-80270645D01*
X141395700Y-80273802D01*
X141233802Y-80435700D01*
X141102477Y-80623251D01*
X141100154Y-80628233D01*
X141100151Y-80628238D01*
X141008039Y-80825775D01*
X141005716Y-80830757D01*
X141004294Y-80836065D01*
X141004293Y-80836067D01*
X140947883Y-81046591D01*
X140946457Y-81051913D01*
X140926502Y-81280000D01*
X140946457Y-81508087D01*
X140947881Y-81513400D01*
X140947881Y-81513402D01*
X140959101Y-81555273D01*
X141005716Y-81729243D01*
X141008039Y-81734224D01*
X141008039Y-81734225D01*
X141100151Y-81931762D01*
X141100154Y-81931767D01*
X141102477Y-81936749D01*
X141233802Y-82124300D01*
X141395700Y-82286198D01*
X141400208Y-82289355D01*
X141400211Y-82289357D01*
X141478389Y-82344098D01*
X141583251Y-82417523D01*
X141588233Y-82419846D01*
X141588238Y-82419849D01*
X141622457Y-82435805D01*
X141675742Y-82482722D01*
X141695203Y-82550999D01*
X141674661Y-82618959D01*
X141622457Y-82664195D01*
X141588238Y-82680151D01*
X141588233Y-82680154D01*
X141583251Y-82682477D01*
X141478389Y-82755902D01*
X141400211Y-82810643D01*
X141400208Y-82810645D01*
X141395700Y-82813802D01*
X141233802Y-82975700D01*
X141102477Y-83163251D01*
X141100154Y-83168233D01*
X141100151Y-83168238D01*
X141008039Y-83365775D01*
X141005716Y-83370757D01*
X140946457Y-83591913D01*
X140926502Y-83820000D01*
X140946457Y-84048087D01*
X141005716Y-84269243D01*
X141008039Y-84274224D01*
X141008039Y-84274225D01*
X141100151Y-84471762D01*
X141100154Y-84471767D01*
X141102477Y-84476749D01*
X141233802Y-84664300D01*
X141395700Y-84826198D01*
X141400208Y-84829355D01*
X141400211Y-84829357D01*
X141478389Y-84884098D01*
X141583251Y-84957523D01*
X141588233Y-84959846D01*
X141588238Y-84959849D01*
X141622457Y-84975805D01*
X141675742Y-85022722D01*
X141695203Y-85090999D01*
X141674661Y-85158959D01*
X141622457Y-85204195D01*
X141588238Y-85220151D01*
X141588233Y-85220154D01*
X141583251Y-85222477D01*
X141478389Y-85295902D01*
X141400211Y-85350643D01*
X141400208Y-85350645D01*
X141395700Y-85353802D01*
X141233802Y-85515700D01*
X141102477Y-85703251D01*
X141100154Y-85708233D01*
X141100151Y-85708238D01*
X141008039Y-85905775D01*
X141005716Y-85910757D01*
X141004294Y-85916065D01*
X141004293Y-85916067D01*
X140947881Y-86126598D01*
X140946457Y-86131913D01*
X140926502Y-86360000D01*
X140946457Y-86588087D01*
X141005716Y-86809243D01*
X141008039Y-86814224D01*
X141008039Y-86814225D01*
X141100151Y-87011762D01*
X141100154Y-87011767D01*
X141102477Y-87016749D01*
X141233802Y-87204300D01*
X141395700Y-87366198D01*
X141400208Y-87369355D01*
X141400211Y-87369357D01*
X141478389Y-87424098D01*
X141583251Y-87497523D01*
X141588233Y-87499846D01*
X141588238Y-87499849D01*
X141622457Y-87515805D01*
X141675742Y-87562722D01*
X141695203Y-87630999D01*
X141674661Y-87698959D01*
X141622457Y-87744195D01*
X141588238Y-87760151D01*
X141588233Y-87760154D01*
X141583251Y-87762477D01*
X141562539Y-87776980D01*
X141400211Y-87890643D01*
X141400208Y-87890645D01*
X141395700Y-87893802D01*
X141233802Y-88055700D01*
X141102477Y-88243251D01*
X141100154Y-88248233D01*
X141100151Y-88248238D01*
X141008039Y-88445775D01*
X141005716Y-88450757D01*
X141004294Y-88456065D01*
X141004293Y-88456067D01*
X140947883Y-88666591D01*
X140946457Y-88671913D01*
X140926502Y-88900000D01*
X140946457Y-89128087D01*
X141005716Y-89349243D01*
X141008039Y-89354224D01*
X141008039Y-89354225D01*
X141100151Y-89551762D01*
X141100154Y-89551767D01*
X141102477Y-89556749D01*
X141233802Y-89744300D01*
X141395700Y-89906198D01*
X141400208Y-89909355D01*
X141400211Y-89909357D01*
X141459529Y-89950892D01*
X141583251Y-90037523D01*
X141588233Y-90039846D01*
X141588238Y-90039849D01*
X141622457Y-90055805D01*
X141675742Y-90102722D01*
X141695203Y-90170999D01*
X141674661Y-90238959D01*
X141622457Y-90284195D01*
X141588238Y-90300151D01*
X141588233Y-90300154D01*
X141583251Y-90302477D01*
X141521531Y-90345694D01*
X141400211Y-90430643D01*
X141400208Y-90430645D01*
X141395700Y-90433802D01*
X141233802Y-90595700D01*
X141102477Y-90783251D01*
X141100154Y-90788233D01*
X141100151Y-90788238D01*
X141008039Y-90985775D01*
X141005716Y-90990757D01*
X141004294Y-90996065D01*
X141004293Y-90996067D01*
X140947883Y-91206591D01*
X140946457Y-91211913D01*
X140926502Y-91440000D01*
X140946457Y-91668087D01*
X141005716Y-91889243D01*
X141008039Y-91894224D01*
X141008039Y-91894225D01*
X141100151Y-92091762D01*
X141100154Y-92091767D01*
X141102477Y-92096749D01*
X141233802Y-92284300D01*
X141395700Y-92446198D01*
X141400208Y-92449355D01*
X141400211Y-92449357D01*
X141478389Y-92504098D01*
X141583251Y-92577523D01*
X141588233Y-92579846D01*
X141588238Y-92579849D01*
X141622457Y-92595805D01*
X141675742Y-92642722D01*
X141695203Y-92710999D01*
X141674661Y-92778959D01*
X141622457Y-92824195D01*
X141588238Y-92840151D01*
X141588233Y-92840154D01*
X141583251Y-92842477D01*
X141478389Y-92915902D01*
X141400211Y-92970643D01*
X141400208Y-92970645D01*
X141395700Y-92973802D01*
X141233802Y-93135700D01*
X141102477Y-93323251D01*
X141100154Y-93328233D01*
X141100151Y-93328238D01*
X141008039Y-93525775D01*
X141005716Y-93530757D01*
X140946457Y-93751913D01*
X140926502Y-93980000D01*
X140946457Y-94208087D01*
X140947881Y-94213400D01*
X140947881Y-94213402D01*
X140979375Y-94330936D01*
X141005716Y-94429243D01*
X141008039Y-94434224D01*
X141008039Y-94434225D01*
X141100151Y-94631762D01*
X141100154Y-94631767D01*
X141102477Y-94636749D01*
X141233802Y-94824300D01*
X141395700Y-94986198D01*
X141400211Y-94989357D01*
X141404424Y-94992892D01*
X141403473Y-94994026D01*
X141443471Y-95044071D01*
X141450776Y-95114690D01*
X141418742Y-95178049D01*
X141357538Y-95214030D01*
X141340483Y-95217082D01*
X141329684Y-95218255D01*
X141193295Y-95269385D01*
X141076739Y-95356739D01*
X140989385Y-95473295D01*
X140938255Y-95609684D01*
X140931500Y-95671866D01*
X140931500Y-97030500D01*
X140911498Y-97098621D01*
X140857842Y-97145114D01*
X140805500Y-97156500D01*
X138744594Y-97156500D01*
X138676473Y-97136498D01*
X138655499Y-97119595D01*
X135929152Y-94393248D01*
X135895126Y-94330936D01*
X135896541Y-94271541D01*
X135912118Y-94213409D01*
X135912120Y-94213398D01*
X135913543Y-94208087D01*
X135933498Y-93980000D01*
X135913543Y-93751913D01*
X135854284Y-93530757D01*
X135851961Y-93525775D01*
X135759849Y-93328238D01*
X135759846Y-93328233D01*
X135757523Y-93323251D01*
X135626198Y-93135700D01*
X135464300Y-92973802D01*
X135459792Y-92970645D01*
X135459789Y-92970643D01*
X135381611Y-92915902D01*
X135276749Y-92842477D01*
X135271767Y-92840154D01*
X135271762Y-92840151D01*
X135237543Y-92824195D01*
X135184258Y-92777278D01*
X135164797Y-92709001D01*
X135185339Y-92641041D01*
X135237543Y-92595805D01*
X135271762Y-92579849D01*
X135271767Y-92579846D01*
X135276749Y-92577523D01*
X135381611Y-92504098D01*
X135459789Y-92449357D01*
X135459792Y-92449355D01*
X135464300Y-92446198D01*
X135626198Y-92284300D01*
X135757523Y-92096749D01*
X135759846Y-92091767D01*
X135759849Y-92091762D01*
X135851961Y-91894225D01*
X135851961Y-91894224D01*
X135854284Y-91889243D01*
X135913543Y-91668087D01*
X135933498Y-91440000D01*
X135913543Y-91211913D01*
X135912117Y-91206591D01*
X135855707Y-90996067D01*
X135855706Y-90996065D01*
X135854284Y-90990757D01*
X135851961Y-90985775D01*
X135759849Y-90788238D01*
X135759846Y-90788233D01*
X135757523Y-90783251D01*
X135626198Y-90595700D01*
X135464300Y-90433802D01*
X135459792Y-90430645D01*
X135459789Y-90430643D01*
X135338469Y-90345694D01*
X135276749Y-90302477D01*
X135271767Y-90300154D01*
X135271762Y-90300151D01*
X135237543Y-90284195D01*
X135184258Y-90237278D01*
X135164797Y-90169001D01*
X135185339Y-90101041D01*
X135237543Y-90055805D01*
X135271762Y-90039849D01*
X135271767Y-90039846D01*
X135276749Y-90037523D01*
X135400471Y-89950892D01*
X135459789Y-89909357D01*
X135459792Y-89909355D01*
X135464300Y-89906198D01*
X135626198Y-89744300D01*
X135757523Y-89556749D01*
X135759846Y-89551767D01*
X135759849Y-89551762D01*
X135851961Y-89354225D01*
X135851961Y-89354224D01*
X135854284Y-89349243D01*
X135913543Y-89128087D01*
X135933498Y-88900000D01*
X135913543Y-88671913D01*
X135912117Y-88666591D01*
X135855707Y-88456067D01*
X135855706Y-88456065D01*
X135854284Y-88450757D01*
X135851961Y-88445775D01*
X135759849Y-88248238D01*
X135759846Y-88248233D01*
X135757523Y-88243251D01*
X135626198Y-88055700D01*
X135464300Y-87893802D01*
X135459792Y-87890645D01*
X135459789Y-87890643D01*
X135297461Y-87776980D01*
X135276749Y-87762477D01*
X135271767Y-87760154D01*
X135271762Y-87760151D01*
X135237543Y-87744195D01*
X135184258Y-87697278D01*
X135164797Y-87629001D01*
X135185339Y-87561041D01*
X135237543Y-87515805D01*
X135271762Y-87499849D01*
X135271767Y-87499846D01*
X135276749Y-87497523D01*
X135381611Y-87424098D01*
X135459789Y-87369357D01*
X135459792Y-87369355D01*
X135464300Y-87366198D01*
X135626198Y-87204300D01*
X135757523Y-87016749D01*
X135759846Y-87011767D01*
X135759849Y-87011762D01*
X135851961Y-86814225D01*
X135851961Y-86814224D01*
X135854284Y-86809243D01*
X135913543Y-86588087D01*
X135933498Y-86360000D01*
X135913543Y-86131913D01*
X135912119Y-86126598D01*
X135855707Y-85916067D01*
X135855706Y-85916065D01*
X135854284Y-85910757D01*
X135851961Y-85905775D01*
X135759849Y-85708238D01*
X135759846Y-85708233D01*
X135757523Y-85703251D01*
X135626198Y-85515700D01*
X135464300Y-85353802D01*
X135459792Y-85350645D01*
X135459789Y-85350643D01*
X135381611Y-85295902D01*
X135276749Y-85222477D01*
X135271767Y-85220154D01*
X135271762Y-85220151D01*
X135237543Y-85204195D01*
X135184258Y-85157278D01*
X135164797Y-85089001D01*
X135185339Y-85021041D01*
X135237543Y-84975805D01*
X135271762Y-84959849D01*
X135271767Y-84959846D01*
X135276749Y-84957523D01*
X135381611Y-84884098D01*
X135459789Y-84829357D01*
X135459792Y-84829355D01*
X135464300Y-84826198D01*
X135626198Y-84664300D01*
X135757523Y-84476749D01*
X135759846Y-84471767D01*
X135759849Y-84471762D01*
X135851961Y-84274225D01*
X135851961Y-84274224D01*
X135854284Y-84269243D01*
X135913543Y-84048087D01*
X135933498Y-83820000D01*
X135913543Y-83591913D01*
X135854284Y-83370757D01*
X135851961Y-83365775D01*
X135759849Y-83168238D01*
X135759846Y-83168233D01*
X135757523Y-83163251D01*
X135626198Y-82975700D01*
X135464300Y-82813802D01*
X135459792Y-82810645D01*
X135459789Y-82810643D01*
X135381611Y-82755902D01*
X135276749Y-82682477D01*
X135271767Y-82680154D01*
X135271762Y-82680151D01*
X135237543Y-82664195D01*
X135184258Y-82617278D01*
X135164797Y-82549001D01*
X135185339Y-82481041D01*
X135237543Y-82435805D01*
X135271762Y-82419849D01*
X135271767Y-82419846D01*
X135276749Y-82417523D01*
X135381611Y-82344098D01*
X135459789Y-82289357D01*
X135459792Y-82289355D01*
X135464300Y-82286198D01*
X135626198Y-82124300D01*
X135757523Y-81936749D01*
X135759846Y-81931767D01*
X135759849Y-81931762D01*
X135851961Y-81734225D01*
X135851961Y-81734224D01*
X135854284Y-81729243D01*
X135900900Y-81555273D01*
X135912119Y-81513402D01*
X135912119Y-81513400D01*
X135913543Y-81508087D01*
X135933498Y-81280000D01*
X135913543Y-81051913D01*
X135912117Y-81046591D01*
X135855707Y-80836067D01*
X135855706Y-80836065D01*
X135854284Y-80830757D01*
X135851961Y-80825775D01*
X135759849Y-80628238D01*
X135759846Y-80628233D01*
X135757523Y-80623251D01*
X135626198Y-80435700D01*
X135464300Y-80273802D01*
X135459792Y-80270645D01*
X135459789Y-80270643D01*
X135320283Y-80172960D01*
X135276749Y-80142477D01*
X135271767Y-80140154D01*
X135271762Y-80140151D01*
X135237543Y-80124195D01*
X135184258Y-80077278D01*
X135164797Y-80009001D01*
X135185339Y-79941041D01*
X135237543Y-79895805D01*
X135271762Y-79879849D01*
X135271767Y-79879846D01*
X135276749Y-79877523D01*
X135381611Y-79804098D01*
X135459789Y-79749357D01*
X135459792Y-79749355D01*
X135464300Y-79746198D01*
X135626198Y-79584300D01*
X135630351Y-79578370D01*
X135754366Y-79401257D01*
X135757523Y-79396749D01*
X135759846Y-79391767D01*
X135759849Y-79391762D01*
X135851961Y-79194225D01*
X135851961Y-79194224D01*
X135854284Y-79189243D01*
X135913543Y-78968087D01*
X135933498Y-78740000D01*
X135913543Y-78511913D01*
X135905900Y-78483388D01*
X135855707Y-78296067D01*
X135855706Y-78296065D01*
X135854284Y-78290757D01*
X135802264Y-78179198D01*
X135759849Y-78088238D01*
X135759846Y-78088233D01*
X135757523Y-78083251D01*
X135626198Y-77895700D01*
X135464300Y-77733802D01*
X135459792Y-77730645D01*
X135459789Y-77730643D01*
X135381611Y-77675902D01*
X135276749Y-77602477D01*
X135271767Y-77600154D01*
X135271762Y-77600151D01*
X135237543Y-77584195D01*
X135184258Y-77537278D01*
X135164797Y-77469001D01*
X135185339Y-77401041D01*
X135237543Y-77355805D01*
X135271762Y-77339849D01*
X135271767Y-77339846D01*
X135276749Y-77337523D01*
X135458318Y-77210387D01*
X135459789Y-77209357D01*
X135459792Y-77209355D01*
X135464300Y-77206198D01*
X135626198Y-77044300D01*
X135757523Y-76856749D01*
X135759846Y-76851767D01*
X135759849Y-76851762D01*
X135851961Y-76654225D01*
X135851961Y-76654224D01*
X135854284Y-76649243D01*
X135890364Y-76514594D01*
X135912119Y-76433402D01*
X135912119Y-76433400D01*
X135913543Y-76428087D01*
X135933498Y-76200000D01*
X135913543Y-75971913D01*
X135908669Y-75953723D01*
X135855707Y-75756067D01*
X135855706Y-75756065D01*
X135854284Y-75750757D01*
X135851961Y-75745775D01*
X135759849Y-75548238D01*
X135759846Y-75548233D01*
X135757523Y-75543251D01*
X135626198Y-75355700D01*
X135464300Y-75193802D01*
X135459792Y-75190645D01*
X135459789Y-75190643D01*
X135381611Y-75135902D01*
X135276749Y-75062477D01*
X135271767Y-75060154D01*
X135271762Y-75060151D01*
X135237543Y-75044195D01*
X135184258Y-74997278D01*
X135164797Y-74929001D01*
X135185339Y-74861041D01*
X135237543Y-74815805D01*
X135271762Y-74799849D01*
X135271767Y-74799846D01*
X135276749Y-74797523D01*
X135381611Y-74724098D01*
X135459789Y-74669357D01*
X135459792Y-74669355D01*
X135464300Y-74666198D01*
X135626198Y-74504300D01*
X135757523Y-74316749D01*
X135759846Y-74311767D01*
X135759849Y-74311762D01*
X135851961Y-74114225D01*
X135851961Y-74114224D01*
X135854284Y-74109243D01*
X135913543Y-73888087D01*
X135933498Y-73660000D01*
X135913543Y-73431913D01*
X135903244Y-73393478D01*
X135901911Y-73388503D01*
X140958606Y-73388503D01*
X140958942Y-73402599D01*
X140966884Y-73406000D01*
X141967885Y-73406000D01*
X141983124Y-73401525D01*
X141984329Y-73400135D01*
X141986000Y-73392452D01*
X141986000Y-73387885D01*
X142494000Y-73387885D01*
X142498475Y-73403124D01*
X142499865Y-73404329D01*
X142507548Y-73406000D01*
X143507967Y-73406000D01*
X143521498Y-73402027D01*
X143522727Y-73393478D01*
X143475236Y-73216239D01*
X143471490Y-73205947D01*
X143379414Y-73008489D01*
X143373931Y-72998993D01*
X143248972Y-72820533D01*
X143241916Y-72812125D01*
X143087875Y-72658084D01*
X143079467Y-72651028D01*
X142901007Y-72526069D01*
X142891511Y-72520586D01*
X142694053Y-72428510D01*
X142683761Y-72424764D01*
X142511497Y-72378606D01*
X142497401Y-72378942D01*
X142494000Y-72386884D01*
X142494000Y-73387885D01*
X141986000Y-73387885D01*
X141986000Y-72392033D01*
X141982027Y-72378502D01*
X141973478Y-72377273D01*
X141796239Y-72424764D01*
X141785947Y-72428510D01*
X141588489Y-72520586D01*
X141578993Y-72526069D01*
X141400533Y-72651028D01*
X141392125Y-72658084D01*
X141238084Y-72812125D01*
X141231028Y-72820533D01*
X141106069Y-72998993D01*
X141100586Y-73008489D01*
X141008510Y-73205947D01*
X141004764Y-73216239D01*
X140958606Y-73388503D01*
X135901911Y-73388503D01*
X135855707Y-73216067D01*
X135855706Y-73216065D01*
X135854284Y-73210757D01*
X135759966Y-73008489D01*
X135759849Y-73008238D01*
X135759846Y-73008233D01*
X135757523Y-73003251D01*
X135626198Y-72815700D01*
X135464300Y-72653802D01*
X135459792Y-72650645D01*
X135459789Y-72650643D01*
X135381611Y-72595902D01*
X135276749Y-72522477D01*
X135271767Y-72520154D01*
X135271762Y-72520151D01*
X135074225Y-72428039D01*
X135074224Y-72428039D01*
X135069243Y-72425716D01*
X135063935Y-72424294D01*
X135063933Y-72424293D01*
X134853402Y-72367881D01*
X134853400Y-72367881D01*
X134848087Y-72366457D01*
X134620000Y-72346502D01*
X134391913Y-72366457D01*
X134386600Y-72367881D01*
X134386598Y-72367881D01*
X134176067Y-72424293D01*
X134176065Y-72424294D01*
X134170757Y-72425716D01*
X134165776Y-72428039D01*
X134165775Y-72428039D01*
X133968238Y-72520151D01*
X133968233Y-72520154D01*
X133963251Y-72522477D01*
X133858389Y-72595902D01*
X133780211Y-72650643D01*
X133780208Y-72650645D01*
X133775700Y-72653802D01*
X133613802Y-72815700D01*
X133610645Y-72820208D01*
X133610643Y-72820211D01*
X133579213Y-72865098D01*
X133523756Y-72909426D01*
X133453136Y-72916735D01*
X133389776Y-72884704D01*
X133353791Y-72823503D01*
X133350000Y-72792827D01*
X133350000Y-61086000D01*
X133370002Y-61017879D01*
X133423658Y-60971386D01*
X133476000Y-60960000D01*
X140838081Y-60960000D01*
X140906202Y-60980002D01*
G37*
%TD.AperFunction*%
%TD*%
M02*
