M48
; DRILL file {KiCad (6.0.9-0)} date Tuesday, December 20, 2022 at 01:23:11 AM
; FORMAT={-:-/ absolute / inch / decimal}
; #@! TF.CreationDate,2022-12-20T01:23:11-08:00
; #@! TF.GenerationSoftware,Kicad,Pcbnew,(6.0.9-0)
; #@! TF.FileFunction,Plated,1,2,PTH
FMAT,2
INCH
; #@! TA.AperFunction,Plated,PTH,ViaDrill
T1C0.0157
; #@! TA.AperFunction,Plated,PTH,ComponentDrill
T2C0.0315
; #@! TA.AperFunction,Plated,PTH,ComponentDrill
T3C0.0394
%
G90
G05
T1
X5.6Y-2.7
X5.7Y-2.7
X5.8Y-2.7
X5.9Y-2.7
X6.0Y-2.7
X6.1Y-2.7
X6.2Y-2.7
X6.3Y-2.7
T2
X5.3Y-2.9
X5.3Y-3.0
X5.3Y-3.1
X5.3Y-3.2
X5.3Y-3.3
X5.3Y-3.4
X5.3Y-3.5
X5.3Y-3.6
X5.3Y-3.7
X5.3Y-3.8
X5.6Y-2.9
X5.6Y-3.0
X5.6Y-3.1
X5.6Y-3.2
X5.6Y-3.3
X5.6Y-3.4
X5.6Y-3.5
X5.6Y-3.6
X5.6Y-3.7
X5.6Y-3.8
X6.3Y-2.9
X6.3Y-3.0
X6.3Y-3.1
X6.3Y-3.2
X6.3Y-3.3
X6.3Y-3.4
X6.3Y-3.5
X6.3Y-3.6
X6.3Y-3.7
X6.3Y-3.8
X6.6Y-2.9
X6.6Y-3.0
X6.6Y-3.1
X6.6Y-3.2
X6.6Y-3.3
X6.6Y-3.4
X6.6Y-3.5
X6.6Y-3.6
X6.6Y-3.7
X6.6Y-3.8
T3
X5.3Y-4.3
X5.4Y-4.3
X5.5Y-4.3
X5.6Y-4.3
X5.6006Y-2.45
X5.7Y-4.3
X5.7006Y-2.45
X5.8Y-4.3
X5.8006Y-2.45
X5.9Y-4.3
X5.9006Y-2.45
X6.0Y-4.3
X6.0006Y-2.45
X6.1006Y-2.45
X6.2Y-4.3
X6.2006Y-2.45
X6.3Y-4.3
X6.3006Y-2.45
X6.4Y-4.3
X6.5Y-4.3
X6.6Y-4.3
T0
M30
