%TF.GenerationSoftware,KiCad,Pcbnew,(6.0.9-0)*%
%TF.CreationDate,2022-12-20T01:23:16-08:00*%
%TF.ProjectId,OSKI8_REGISTER,4f534b49-385f-4524-9547-49535445522e,rev?*%
%TF.SameCoordinates,Original*%
%TF.FileFunction,Drillmap*%
%TF.FilePolarity,Positive*%
%FSLAX45Y45*%
G04 Gerber Fmt 4.5, Leading zero omitted, Abs format (unit mm)*
G04 Created by KiCad (PCBNEW (6.0.9-0)) date 2022-12-20 01:23:16*
%MOMM*%
%LPD*%
G01*
G04 APERTURE LIST*
%ADD10C,0.100000*%
%ADD11C,0.200000*%
G04 APERTURE END LIST*
D10*
X13208000Y-11176000D02*
X17145000Y-11176000D01*
X17145000Y-11176000D02*
X17145000Y-5969000D01*
X17145000Y-5969000D02*
X13208000Y-5969000D01*
X13208000Y-5969000D02*
X13208000Y-11176000D01*
D11*
X13460619Y-11491476D02*
X13460619Y-11291476D01*
X13508238Y-11291476D01*
X13536809Y-11301000D01*
X13555857Y-11320048D01*
X13565381Y-11339095D01*
X13574905Y-11377190D01*
X13574905Y-11405762D01*
X13565381Y-11443857D01*
X13555857Y-11462905D01*
X13536809Y-11481952D01*
X13508238Y-11491476D01*
X13460619Y-11491476D01*
X13660619Y-11491476D02*
X13660619Y-11358143D01*
X13660619Y-11396238D02*
X13670143Y-11377190D01*
X13679667Y-11367667D01*
X13698714Y-11358143D01*
X13717762Y-11358143D01*
X13784428Y-11491476D02*
X13784428Y-11358143D01*
X13784428Y-11291476D02*
X13774905Y-11301000D01*
X13784428Y-11310524D01*
X13793952Y-11301000D01*
X13784428Y-11291476D01*
X13784428Y-11310524D01*
X13908238Y-11491476D02*
X13889190Y-11481952D01*
X13879667Y-11462905D01*
X13879667Y-11291476D01*
X14013000Y-11491476D02*
X13993952Y-11481952D01*
X13984428Y-11462905D01*
X13984428Y-11291476D01*
X14241571Y-11491476D02*
X14241571Y-11291476D01*
X14308238Y-11434333D01*
X14374905Y-11291476D01*
X14374905Y-11491476D01*
X14555857Y-11491476D02*
X14555857Y-11386714D01*
X14546333Y-11367667D01*
X14527286Y-11358143D01*
X14489190Y-11358143D01*
X14470143Y-11367667D01*
X14555857Y-11481952D02*
X14536809Y-11491476D01*
X14489190Y-11491476D01*
X14470143Y-11481952D01*
X14460619Y-11462905D01*
X14460619Y-11443857D01*
X14470143Y-11424809D01*
X14489190Y-11415286D01*
X14536809Y-11415286D01*
X14555857Y-11405762D01*
X14651095Y-11358143D02*
X14651095Y-11558143D01*
X14651095Y-11367667D02*
X14670143Y-11358143D01*
X14708238Y-11358143D01*
X14727286Y-11367667D01*
X14736809Y-11377190D01*
X14746333Y-11396238D01*
X14746333Y-11453381D01*
X14736809Y-11472428D01*
X14727286Y-11481952D01*
X14708238Y-11491476D01*
X14670143Y-11491476D01*
X14651095Y-11481952D01*
X14832048Y-11472428D02*
X14841571Y-11481952D01*
X14832048Y-11491476D01*
X14822524Y-11481952D01*
X14832048Y-11472428D01*
X14832048Y-11491476D01*
X14832048Y-11367667D02*
X14841571Y-11377190D01*
X14832048Y-11386714D01*
X14822524Y-11377190D01*
X14832048Y-11367667D01*
X14832048Y-11386714D01*
M02*
