%TF.GenerationSoftware,KiCad,Pcbnew,(6.0.9-0)*%
%TF.CreationDate,2022-12-20T01:23:04-08:00*%
%TF.ProjectId,OSKI8_REGISTER,4f534b49-385f-4524-9547-49535445522e,rev?*%
%TF.SameCoordinates,Original*%
%TF.FileFunction,Copper,L1,Top*%
%TF.FilePolarity,Positive*%
%FSLAX46Y46*%
G04 Gerber Fmt 4.6, Leading zero omitted, Abs format (unit mm)*
G04 Created by KiCad (PCBNEW (6.0.9-0)) date 2022-12-20 01:23:04*
%MOMM*%
%LPD*%
G01*
G04 APERTURE LIST*
G04 Aperture macros list*
%AMRoundRect*
0 Rectangle with rounded corners*
0 $1 Rounding radius*
0 $2 $3 $4 $5 $6 $7 $8 $9 X,Y pos of 4 corners*
0 Add a 4 corners polygon primitive as box body*
4,1,4,$2,$3,$4,$5,$6,$7,$8,$9,$2,$3,0*
0 Add four circle primitives for the rounded corners*
1,1,$1+$1,$2,$3*
1,1,$1+$1,$4,$5*
1,1,$1+$1,$6,$7*
1,1,$1+$1,$8,$9*
0 Add four rect primitives between the rounded corners*
20,1,$1+$1,$2,$3,$4,$5,0*
20,1,$1+$1,$4,$5,$6,$7,0*
20,1,$1+$1,$6,$7,$8,$9,0*
20,1,$1+$1,$8,$9,$2,$3,0*%
G04 Aperture macros list end*
%TA.AperFunction,SMDPad,CuDef*%
%ADD10RoundRect,0.250000X-0.625000X0.400000X-0.625000X-0.400000X0.625000X-0.400000X0.625000X0.400000X0*%
%TD*%
%TA.AperFunction,ComponentPad*%
%ADD11R,1.700000X1.700000*%
%TD*%
%TA.AperFunction,ComponentPad*%
%ADD12O,1.700000X1.700000*%
%TD*%
%TA.AperFunction,ComponentPad*%
%ADD13R,1.600000X1.600000*%
%TD*%
%TA.AperFunction,ComponentPad*%
%ADD14O,1.600000X1.600000*%
%TD*%
%TA.AperFunction,ViaPad*%
%ADD15C,0.800000*%
%TD*%
%TA.AperFunction,Conductor*%
%ADD16C,0.250000*%
%TD*%
G04 APERTURE END LIST*
D10*
%TO.P,R6,1*%
%TO.N,/R2*%
X147320000Y-102590000D03*
%TO.P,R6,2*%
%TO.N,Net-(LED_OUT1-Pad3)*%
X147320000Y-105690000D03*
%TD*%
D11*
%TO.P,DATA_BUS1,1,D0*%
%TO.N,/D0*%
X142255000Y-62230000D03*
D12*
%TO.P,DATA_BUS1,2,D1*%
%TO.N,/D1*%
X144795000Y-62230000D03*
%TO.P,DATA_BUS1,3,D2*%
%TO.N,/D2*%
X147335000Y-62230000D03*
%TO.P,DATA_BUS1,4,D3*%
%TO.N,/D3*%
X149875000Y-62230000D03*
%TO.P,DATA_BUS1,5,D4*%
%TO.N,/D4*%
X152415000Y-62230000D03*
%TO.P,DATA_BUS1,6,D5*%
%TO.N,/D5*%
X154955000Y-62230000D03*
%TO.P,DATA_BUS1,7,D6*%
%TO.N,/D6*%
X157495000Y-62230000D03*
%TO.P,DATA_BUS1,8,D7*%
%TO.N,/D7*%
X160035000Y-62230000D03*
%TD*%
D10*
%TO.P,R0,1*%
%TO.N,/R0*%
X152400000Y-102590000D03*
%TO.P,R0,2*%
%TO.N,Net-(LED_OUT1-Pad1)*%
X152400000Y-105690000D03*
%TD*%
%TO.P,R1,1*%
%TO.N,/R7*%
X134620000Y-102590000D03*
%TO.P,R1,2*%
%TO.N,Net-(LED_OUT1-Pad8)*%
X134620000Y-105690000D03*
%TD*%
D13*
%TO.P,U2,1,~{E}*%
%TO.N,~{RegWE}*%
X160020000Y-73660000D03*
D14*
%TO.P,U2,2,Q0*%
%TO.N,/R7*%
X160020000Y-76200000D03*
%TO.P,U2,3,D0*%
%TO.N,/D7*%
X160020000Y-78740000D03*
%TO.P,U2,4,D1*%
%TO.N,/D6*%
X160020000Y-81280000D03*
%TO.P,U2,5,Q1*%
%TO.N,/R6*%
X160020000Y-83820000D03*
%TO.P,U2,6,Q2*%
%TO.N,/R5*%
X160020000Y-86360000D03*
%TO.P,U2,7,D2*%
%TO.N,/D5*%
X160020000Y-88900000D03*
%TO.P,U2,8,D3*%
%TO.N,/D4*%
X160020000Y-91440000D03*
%TO.P,U2,9,Q3*%
%TO.N,/R4*%
X160020000Y-93980000D03*
%TO.P,U2,10,GND*%
%TO.N,GND*%
X160020000Y-96520000D03*
%TO.P,U2,11,CP*%
%TO.N,CLK*%
X167640000Y-96520000D03*
%TO.P,U2,12,Q4*%
%TO.N,/R3*%
X167640000Y-93980000D03*
%TO.P,U2,13,D4*%
%TO.N,/D3*%
X167640000Y-91440000D03*
%TO.P,U2,14,D5*%
%TO.N,/D2*%
X167640000Y-88900000D03*
%TO.P,U2,15,Q5*%
%TO.N,/R2*%
X167640000Y-86360000D03*
%TO.P,U2,16,Q6*%
%TO.N,/R1*%
X167640000Y-83820000D03*
%TO.P,U2,17,D6*%
%TO.N,/D1*%
X167640000Y-81280000D03*
%TO.P,U2,18,D7*%
%TO.N,/D0*%
X167640000Y-78740000D03*
%TO.P,U2,19,Q7*%
%TO.N,/R0*%
X167640000Y-76200000D03*
%TO.P,U2,20,VCC*%
%TO.N,+5V*%
X167640000Y-73660000D03*
%TD*%
D11*
%TO.P,CONTROL1,1,RegOE*%
%TO.N,RegOE*%
X157480000Y-109220000D03*
D12*
%TO.P,CONTROL1,2,~{RegWE}*%
%TO.N,+5V*%
X160020000Y-109220000D03*
%TO.P,CONTROL1,3,CLK*%
%TO.N,GND*%
X162560000Y-109220000D03*
%TO.P,CONTROL1,4,+5V*%
%TO.N,~{RegWE}*%
X165100000Y-109220000D03*
%TO.P,CONTROL1,5,GND*%
%TO.N,CLK*%
X167640000Y-109220000D03*
%TD*%
D11*
%TO.P,LED_OUT1,1,R0*%
%TO.N,Net-(LED_OUT1-Pad1)*%
X152400000Y-109220000D03*
D12*
%TO.P,LED_OUT1,2,R1*%
%TO.N,Net-(LED_OUT1-Pad2)*%
X149860000Y-109220000D03*
%TO.P,LED_OUT1,3,R2*%
%TO.N,Net-(LED_OUT1-Pad3)*%
X147320000Y-109220000D03*
%TO.P,LED_OUT1,4,R3*%
%TO.N,Net-(LED_OUT1-Pad4)*%
X144780000Y-109220000D03*
%TO.P,LED_OUT1,5,R4*%
%TO.N,Net-(LED_OUT1-Pad5)*%
X142240000Y-109220000D03*
%TO.P,LED_OUT1,6,R5*%
%TO.N,Net-(LED_OUT1-Pad6)*%
X139700000Y-109220000D03*
%TO.P,LED_OUT1,7,R6*%
%TO.N,Net-(LED_OUT1-Pad7)*%
X137160000Y-109220000D03*
%TO.P,LED_OUT1,8,R7*%
%TO.N,Net-(LED_OUT1-Pad8)*%
X134620000Y-109220000D03*
%TD*%
D10*
%TO.P,R7,1*%
%TO.N,/R1*%
X149860000Y-102590000D03*
%TO.P,R7,2*%
%TO.N,Net-(LED_OUT1-Pad2)*%
X149860000Y-105690000D03*
%TD*%
%TO.P,R5,1*%
%TO.N,/R3*%
X144780000Y-102590000D03*
%TO.P,R5,2*%
%TO.N,Net-(LED_OUT1-Pad4)*%
X144780000Y-105690000D03*
%TD*%
D13*
%TO.P,U1,1,A->B*%
%TO.N,+5V*%
X142240000Y-96520000D03*
D14*
%TO.P,U1,2,A0*%
%TO.N,/R7*%
X142240000Y-93980000D03*
%TO.P,U1,3,A1*%
%TO.N,/R6*%
X142240000Y-91440000D03*
%TO.P,U1,4,A2*%
%TO.N,/R5*%
X142240000Y-88900000D03*
%TO.P,U1,5,A3*%
%TO.N,/R4*%
X142240000Y-86360000D03*
%TO.P,U1,6,A4*%
%TO.N,/R3*%
X142240000Y-83820000D03*
%TO.P,U1,7,A5*%
%TO.N,/R2*%
X142240000Y-81280000D03*
%TO.P,U1,8,A6*%
%TO.N,/R1*%
X142240000Y-78740000D03*
%TO.P,U1,9,A7*%
%TO.N,/R0*%
X142240000Y-76200000D03*
%TO.P,U1,10,GND*%
%TO.N,GND*%
X142240000Y-73660000D03*
%TO.P,U1,11,B7*%
%TO.N,/D0*%
X134620000Y-73660000D03*
%TO.P,U1,12,B6*%
%TO.N,/D1*%
X134620000Y-76200000D03*
%TO.P,U1,13,B5*%
%TO.N,/D2*%
X134620000Y-78740000D03*
%TO.P,U1,14,B4*%
%TO.N,/D3*%
X134620000Y-81280000D03*
%TO.P,U1,15,B3*%
%TO.N,/D4*%
X134620000Y-83820000D03*
%TO.P,U1,16,B2*%
%TO.N,/D5*%
X134620000Y-86360000D03*
%TO.P,U1,17,B1*%
%TO.N,/D6*%
X134620000Y-88900000D03*
%TO.P,U1,18,B0*%
%TO.N,/D7*%
X134620000Y-91440000D03*
%TO.P,U1,19,CE*%
%TO.N,RegOE*%
X134620000Y-93980000D03*
%TO.P,U1,20,VCC*%
%TO.N,+5V*%
X134620000Y-96520000D03*
%TD*%
D10*
%TO.P,R3,1*%
%TO.N,/R5*%
X139700000Y-102590000D03*
%TO.P,R3,2*%
%TO.N,Net-(LED_OUT1-Pad6)*%
X139700000Y-105690000D03*
%TD*%
%TO.P,R2,1*%
%TO.N,/R6*%
X137160000Y-102590000D03*
%TO.P,R2,2*%
%TO.N,Net-(LED_OUT1-Pad7)*%
X137160000Y-105690000D03*
%TD*%
%TO.P,R4,1*%
%TO.N,/R4*%
X142240000Y-102590000D03*
%TO.P,R4,2*%
%TO.N,Net-(LED_OUT1-Pad5)*%
X142240000Y-105690000D03*
%TD*%
D15*
%TO.N,/D0*%
X142240000Y-68580000D03*
%TO.N,/D1*%
X144780000Y-68580000D03*
%TO.N,/D2*%
X147320000Y-68580000D03*
%TO.N,/D3*%
X149860000Y-68580000D03*
%TO.N,/D4*%
X152400000Y-68580000D03*
%TO.N,/D5*%
X154940000Y-68580000D03*
%TO.N,/D6*%
X157480000Y-68580000D03*
%TO.N,/D7*%
X160020000Y-68580000D03*
%TD*%
D16*
%TO.N,/R7*%
X142240000Y-93980000D02*
X144780000Y-96520000D01*
X144780000Y-96520000D02*
X144780000Y-97790000D01*
X159383604Y-76200000D02*
X158258604Y-77325000D01*
X158258604Y-77325000D02*
X141115000Y-77325000D01*
X134620000Y-101600000D02*
X134620000Y-102590000D01*
X144780000Y-97790000D02*
X142690000Y-99880000D01*
X139700000Y-78740000D02*
X139700000Y-91440000D01*
X139700000Y-91440000D02*
X142240000Y-93980000D01*
X136340000Y-99880000D02*
X134620000Y-101600000D01*
X141115000Y-77325000D02*
X139700000Y-78740000D01*
X160020000Y-76200000D02*
X159383604Y-76200000D01*
X142690000Y-99880000D02*
X136340000Y-99880000D01*
%TO.N,/R6*%
X145230000Y-94430000D02*
X145230000Y-98610000D01*
X158895000Y-82695000D02*
X141374010Y-82695000D01*
X141374010Y-82695000D02*
X140265000Y-83804010D01*
X137160000Y-101600000D02*
X137160000Y-102590000D01*
X140265000Y-89465000D02*
X142240000Y-91440000D01*
X142240000Y-91440000D02*
X145230000Y-94430000D01*
X145230000Y-98610000D02*
X143510000Y-100330000D01*
X138430000Y-100330000D02*
X137160000Y-101600000D01*
X143510000Y-100330000D02*
X138430000Y-100330000D01*
X160020000Y-83820000D02*
X158895000Y-82695000D01*
X140265000Y-83804010D02*
X140265000Y-89465000D01*
%TO.N,/R5*%
X144780000Y-86360000D02*
X143655000Y-85235000D01*
X141374010Y-85235000D02*
X140715000Y-85894010D01*
X160020000Y-86360000D02*
X144780000Y-86360000D01*
X140520000Y-100780000D02*
X139700000Y-101600000D01*
X139700000Y-101600000D02*
X139700000Y-102590000D01*
X140715000Y-85894010D02*
X140715000Y-87375000D01*
X140715000Y-87375000D02*
X142240000Y-88900000D01*
X143655000Y-85235000D02*
X141374010Y-85235000D01*
X145680000Y-98796396D02*
X143696396Y-100780000D01*
X145680000Y-92340000D02*
X145680000Y-98796396D01*
X143696396Y-100780000D02*
X140520000Y-100780000D01*
X142240000Y-88900000D02*
X145680000Y-92340000D01*
%TO.N,/R4*%
X146130000Y-98982792D02*
X143882792Y-101230000D01*
X143882792Y-101230000D02*
X142610000Y-101230000D01*
X160020000Y-93980000D02*
X156355000Y-90315000D01*
X160020000Y-93980000D02*
X151130000Y-93980000D01*
X142610000Y-101230000D02*
X142240000Y-101600000D01*
X146130000Y-98980000D02*
X146130000Y-98982792D01*
X156355000Y-90315000D02*
X146195000Y-90315000D01*
X146195000Y-90315000D02*
X142240000Y-86360000D01*
X151130000Y-93980000D02*
X146130000Y-98980000D01*
X142240000Y-101600000D02*
X142240000Y-102590000D01*
%TO.N,/R3*%
X169390000Y-95730000D02*
X169390000Y-97310000D01*
X157739010Y-83820000D02*
X142240000Y-83820000D01*
X159154010Y-85235000D02*
X157739010Y-83820000D01*
X161545000Y-87885000D02*
X161545000Y-85894010D01*
X167640000Y-93980000D02*
X161545000Y-87885000D01*
X144780000Y-101600000D02*
X144780000Y-102590000D01*
X160885990Y-85235000D02*
X159154010Y-85235000D01*
X167640000Y-93980000D02*
X169390000Y-95730000D01*
X147947599Y-98432401D02*
X144780000Y-101600000D01*
X161545000Y-85894010D02*
X160885990Y-85235000D01*
X168267599Y-98432401D02*
X147947599Y-98432401D01*
X169390000Y-97310000D02*
X168267599Y-98432401D01*
%TO.N,/R2*%
X161435000Y-80155000D02*
X158605000Y-80155000D01*
X167640000Y-86360000D02*
X161435000Y-80155000D01*
X147320000Y-101600000D02*
X147320000Y-102590000D01*
X150037599Y-98882401D02*
X147320000Y-101600000D01*
X169840000Y-88560000D02*
X169840000Y-97496396D01*
X158605000Y-80155000D02*
X157480000Y-81280000D01*
X167640000Y-86360000D02*
X169840000Y-88560000D01*
X157480000Y-81280000D02*
X142240000Y-81280000D01*
X169840000Y-97496396D02*
X168453995Y-98882401D01*
X168453995Y-98882401D02*
X150037599Y-98882401D01*
%TO.N,/R1*%
X167640000Y-83820000D02*
X161435000Y-77615000D01*
X157480000Y-78740000D02*
X142240000Y-78740000D01*
X158605000Y-77615000D02*
X157480000Y-78740000D01*
X170290000Y-86470000D02*
X170290000Y-97682792D01*
X149860000Y-101600000D02*
X149860000Y-102590000D01*
X170290000Y-97682792D02*
X168640391Y-99332401D01*
X168640391Y-99332401D02*
X152127599Y-99332401D01*
X167640000Y-83820000D02*
X170290000Y-86470000D01*
X161435000Y-77615000D02*
X158605000Y-77615000D01*
X152127599Y-99332401D02*
X149860000Y-101600000D01*
%TO.N,/R0*%
X170740000Y-79300000D02*
X170740000Y-97869188D01*
X168826787Y-99782401D02*
X154217599Y-99782401D01*
X167640000Y-76200000D02*
X170740000Y-79300000D01*
X163555495Y-76200000D02*
X162430495Y-75075000D01*
X167640000Y-76200000D02*
X163555495Y-76200000D01*
X152400000Y-101600000D02*
X152400000Y-102590000D01*
X157609505Y-75075000D02*
X156484505Y-76200000D01*
X170740000Y-97869188D02*
X168826787Y-99782401D01*
X162430495Y-75075000D02*
X157609505Y-75075000D01*
X154217599Y-99782401D02*
X152400000Y-101600000D01*
X156484505Y-76200000D02*
X142240000Y-76200000D01*
%TO.N,+5V*%
X167640000Y-73660000D02*
X166515000Y-72535000D01*
X145455000Y-75075000D02*
X141374010Y-75075000D01*
X139250000Y-93530000D02*
X136260000Y-96520000D01*
X141374010Y-75075000D02*
X139250000Y-77199010D01*
X166515000Y-72535000D02*
X147995000Y-72535000D01*
X139250000Y-77199010D02*
X139250000Y-93530000D01*
X147995000Y-72535000D02*
X145455000Y-75075000D01*
X139250000Y-93530000D02*
X142240000Y-96520000D01*
X136260000Y-96520000D02*
X134620000Y-96520000D01*
%TO.N,/D0*%
X134620000Y-73660000D02*
X135890000Y-73660000D01*
X141885000Y-68935000D02*
X142240000Y-68580000D01*
X142255000Y-68565000D02*
X142255000Y-62230000D01*
X139345000Y-68935000D02*
X141885000Y-68935000D01*
X142240000Y-68580000D02*
X142255000Y-68565000D01*
X136710000Y-71570000D02*
X139345000Y-68935000D01*
X136710000Y-72840000D02*
X136710000Y-71570000D01*
X135890000Y-73660000D02*
X136710000Y-72840000D01*
%TO.N,/D1*%
X134620000Y-76200000D02*
X137160000Y-73660000D01*
X137160000Y-73660000D02*
X137160000Y-71756396D01*
X144795000Y-68565000D02*
X144795000Y-62230000D01*
X137160000Y-71756396D02*
X139531396Y-69385000D01*
X139531396Y-69385000D02*
X143975000Y-69385000D01*
X144780000Y-68580000D02*
X144795000Y-68565000D01*
X143975000Y-69385000D02*
X144780000Y-68580000D01*
%TO.N,/D2*%
X147335000Y-68565000D02*
X147335000Y-62230000D01*
X134620000Y-78740000D02*
X135389010Y-78740000D01*
X135389010Y-78740000D02*
X136145000Y-77984010D01*
X136145000Y-75311396D02*
X137610000Y-73846396D01*
X147320000Y-68580000D02*
X147335000Y-68565000D01*
X146065000Y-69835000D02*
X147320000Y-68580000D01*
X136145000Y-77984010D02*
X136145000Y-75311396D01*
X137610000Y-71942792D02*
X139717792Y-69835000D01*
X139717792Y-69835000D02*
X146065000Y-69835000D01*
X137610000Y-73846396D02*
X137610000Y-71942792D01*
%TO.N,/D3*%
X134620000Y-80730990D02*
X136595000Y-78755990D01*
X139904188Y-70285000D02*
X148155000Y-70285000D01*
X138060000Y-74032792D02*
X138060000Y-72129188D01*
X138060000Y-72129188D02*
X139904188Y-70285000D01*
X134620000Y-81280000D02*
X134620000Y-80730990D01*
X149875000Y-68565000D02*
X149875000Y-62230000D01*
X148155000Y-70285000D02*
X149860000Y-68580000D01*
X136595000Y-75497792D02*
X138060000Y-74032792D01*
X149860000Y-68580000D02*
X149875000Y-68565000D01*
X136595000Y-78755990D02*
X136595000Y-75497792D01*
%TO.N,/D4*%
X152415000Y-68565000D02*
X152415000Y-62230000D01*
X150245000Y-70735000D02*
X152400000Y-68580000D01*
X140090584Y-70735000D02*
X150245000Y-70735000D01*
X137160000Y-81280000D02*
X137160000Y-75569188D01*
X152400000Y-68580000D02*
X152415000Y-68565000D01*
X138510000Y-72315584D02*
X140090584Y-70735000D01*
X134620000Y-83820000D02*
X137160000Y-81280000D01*
X137160000Y-75569188D02*
X138510000Y-74219188D01*
X138510000Y-74219188D02*
X138510000Y-72315584D01*
%TO.N,/D5*%
X152335000Y-71185000D02*
X154940000Y-68580000D01*
X138960000Y-74405584D02*
X138960000Y-72501980D01*
X154955000Y-68565000D02*
X154955000Y-62230000D01*
X154940000Y-68580000D02*
X154955000Y-68565000D01*
X137610000Y-75755584D02*
X138960000Y-74405584D01*
X140276980Y-71185000D02*
X152335000Y-71185000D01*
X134620000Y-86360000D02*
X137610000Y-83370000D01*
X137610000Y-83370000D02*
X137610000Y-75755584D01*
X138960000Y-72501980D02*
X140276980Y-71185000D01*
%TO.N,/D6*%
X138060000Y-76200000D02*
X139410000Y-74850000D01*
X157480000Y-68580000D02*
X157495000Y-68565000D01*
X134620000Y-88900000D02*
X138060000Y-85460000D01*
X154425000Y-71635000D02*
X157480000Y-68580000D01*
X138060000Y-85460000D02*
X138060000Y-76200000D01*
X139410000Y-74850000D02*
X139410000Y-72688376D01*
X157495000Y-68565000D02*
X157495000Y-62230000D01*
X140463376Y-71635000D02*
X154425000Y-71635000D01*
X139410000Y-72688376D02*
X140463376Y-71635000D01*
%TO.N,/D7*%
X139860000Y-75036396D02*
X139860000Y-72874772D01*
X160035000Y-68565000D02*
X160035000Y-62230000D01*
X139860000Y-72874772D02*
X140649772Y-72085000D01*
X156515000Y-72085000D02*
X160020000Y-68580000D01*
X134620000Y-91440000D02*
X138510000Y-87550000D01*
X140649772Y-72085000D02*
X156515000Y-72085000D01*
X138510000Y-87550000D02*
X138510000Y-76386396D01*
X160020000Y-68580000D02*
X160035000Y-68565000D01*
X138510000Y-76386396D02*
X139860000Y-75036396D01*
%TO.N,Net-(LED_OUT1-Pad1)*%
X152400000Y-109220000D02*
X152400000Y-105690000D01*
%TO.N,Net-(LED_OUT1-Pad2)*%
X149860000Y-109220000D02*
X149860000Y-105690000D01*
%TO.N,Net-(LED_OUT1-Pad3)*%
X147320000Y-109220000D02*
X147320000Y-105690000D01*
%TO.N,Net-(LED_OUT1-Pad4)*%
X144780000Y-109220000D02*
X144780000Y-105690000D01*
%TO.N,Net-(LED_OUT1-Pad5)*%
X142240000Y-109220000D02*
X142240000Y-105690000D01*
%TO.N,Net-(LED_OUT1-Pad6)*%
X139700000Y-109220000D02*
X139700000Y-105690000D01*
%TO.N,Net-(LED_OUT1-Pad7)*%
X137160000Y-109220000D02*
X137160000Y-105690000D01*
%TO.N,Net-(LED_OUT1-Pad8)*%
X134620000Y-109220000D02*
X134620000Y-105690000D01*
%TD*%
M02*
